<svg width="512" height="512" xmlns="http://www.w3.org/2000/svg"><g transform="translate(58 48)" fill="none" fill-rule="evenodd"><path d="M122.172 379.825c-28.664 3.75-47.079 9.578-47.079 16.125 0 11.307 55.016 20.477 122.879 20.477 67.869 0 122.885-9.17 122.885-20.477 0-6.547-18.412-12.373-47.077-16.123-23.327 10.33-48.93 16.12-75.808 16.123-26.879-.003-52.479-5.794-75.8-16.125" fill="#EEEEF0"/><path d="M371.924 271.372c11.008-24.888 17.196-52.207 17.196-80.473 0-105.57-85.58-184.067-191.15-184.067C92.406 6.832 6.827 85.33 6.827 190.899c0 28.211 6.159 55.474 17.135 80.321-2.637 4.072-5.148 8.213-7.486 12.472-7.554 13.777 2.366 30.468 18.383 30.502l13.706-1.367c35.03 45.844 88.916 76.296 149.405 76.296 60.232 0 113.922-30.187 148.953-75.699l14.317 1.49c16.024.036 26.013-16.62 18.514-30.431-2.427-4.48-5.078-8.838-7.83-13.111" fill="#F99"/><path d="M371.924 271.372l6.236 2.761c11.383-25.707 17.785-53.968 17.785-83.236.02-54.654-22.22-102.553-58.109-136.577C301.952 20.275 252.452 0 197.97 0 143.495 0 93.995 20.277 58.11 54.321 22.22 88.347-.02 136.245.002 190.9c0 29.203 6.374 57.41 17.717 83.082l6.243-2.76-5.73-3.711a208.503 208.503 0 0 0-7.741 12.895c-2.318 4.226-3.427 8.77-3.42 13.18 0 7.235 2.9 14.054 7.818 19.104 4.905 5.056 11.986 8.332 19.958 8.332l.693-.036 13.706-1.367-.68-6.791-5.423 4.14c36.16 47.343 91.996 78.975 154.829 78.983 62.563-.008 118.202-31.362 154.364-78.365l-5.41-4.16-.701 6.79 14.31 1.492.708.036.367-.014-.319-6.32v6.327l.32-.007-.32-6.32v6.327c7.977.02 15.073-3.246 19.985-8.303 4.932-5.05 7.839-11.877 7.846-19.125 0-4.376-1.09-8.894-3.371-13.083-2.524-4.675-5.265-9.177-8.095-13.553l-5.732 3.7 6.236 2.761-6.236-2.761-5.736 3.705c2.69 4.168 5.244 8.371 7.56 12.652 1.207 2.22 1.714 4.427 1.714 6.577.006 3.552-1.451 7.026-3.948 9.58-2.517 2.544-5.924 4.181-10.225 4.196l-.367.014.32 6.327v-6.334l-.32.007.32 6.327v-6.334 6.825l.708-6.79-14.317-1.492a6.787 6.787 0 0 0-6.112 2.628c-33.9 44.022-85.656 73.038-143.55 73.038-58.144 0-110.086-29.272-143.979-73.613a6.815 6.815 0 0 0-6.105-2.65L34.181 307.4l.68 6.791.02-6.826c-4.308-.03-7.707-1.666-10.218-4.21-2.497-2.56-3.947-6.029-3.94-9.573.006-2.166.52-4.376 1.733-6.604 2.248-4.092 4.677-8.094 7.235-12.05a6.827 6.827 0 0 0 .514-6.465c-10.607-24.027-16.552-50.352-16.552-77.565.02-50.923 20.567-95.054 53.858-126.672 33.304-31.59 79.377-50.57 130.459-50.577 51.089.007 97.164 18.987 130.466 50.577 33.29 31.616 53.837 75.749 53.857 126.672 0 27.27-5.964 53.65-16.612 77.713a6.786 6.786 0 0 0 .507 6.465l5.736-3.705" fill="#54596E"/><path d="M380.698 167.385c-11.717 91.417-89.034 167.127-182.728 167.127-93.688 0-171.005-75.708-182.72-167.127-1.01 7.714-1.592 15.594-1.597 23.658.02 27.161 5.963 53.437 16.552 77.422.182.415.322.844.418 1.277a197.726 197.726 0 0 0 22.432 37.943c.34.298.656.631.935 1 33.227 43.469 83.803 72.456 140.56 73.578l.068.001.562.01.172.004.447.005.227.004.43.005.227.001.423.002.226.002.638.001.64-.001.205-.002.445-.002.203-.001.454-.005.205-.002c.152-.004.304-.005.454-.007l.177-.003c.173-.004.347-.006.52-.009.037-.002.08-.002.117-.003 56.508-1.118 106.897-29.853 140.128-73.003.281-.367.594-.7.935-.997a197.79 197.79 0 0 0 22.803-38.37c.097-.436.239-.866.425-1.28 10.629-24.024 16.592-50.354 16.612-77.572-.005-8.066-.587-15.944-1.595-23.656" fill="#EE9295"/><path d="M197.332 382.297l.638.001-.638-.001m1.278 0l-.64.001.64-.001m-1.927-.004l.423.002-.423-.002m2.577 0l-.445.002.445-.002m-3.234-.005l.43.005-.43-.005m3.891 0l-.454.005.454-.005m.66-.008c-.151.001-.301.003-.453.007.148-.004.305-.006.454-.007m-5.226 0l.447.005-.447-.005m5.924-.012l-.52.008.52-.008m-6.658-.002l.562.01-.562-.01m147.837-74.001a6.92 6.92 0 0 0-.936.997c-33.228 43.15-83.62 71.884-140.127 73.002 57.16-1.124 107.958-30.389 141.063-73.999m-289.4-.579c33.092 43.933 84.088 73.449 141.495 74.578-56.759-1.121-107.333-30.11-140.56-73.577a6.859 6.859 0 0 0-.935-1M13.653 191.042v.105c0 27.624 6.08 54.339 16.97 78.594a6.809 6.809 0 0 0-.418-1.277c-10.589-23.985-16.531-50.26-16.552-77.422m368.64-.002c-.02 27.218-5.983 53.548-16.612 77.571a6.825 6.825 0 0 0-.425 1.28c10.936-24.296 17.037-51.058 17.037-78.744v-.107" fill="#54596E" fill-rule="nonzero"/><path fill="#F99" d="M255.31904 139.265707L238.933333 163.841707 279.893333 163.841707"/><path d="M249.64 135.477l-16.388 24.576a6.804 6.804 0 0 0-.34 7.007 6.808 6.808 0 0 0 6.021 3.607h40.96a6.825 6.825 0 0 0 0-13.65l-28.204-.002 9.312-13.964a6.827 6.827 0 0 0-11.362-7.574z" fill="#54596E"/><path fill="#F99" d="M140.62592 139.265707L157.013333 163.841707 116.053333 163.841707"/><path d="M134.946 143.053l9.31 13.962h-28.203a6.827 6.827 0 0 0 0 13.653l40.96-.001a6.808 6.808 0 0 0 6.02-3.605 6.804 6.804 0 0 0-.34-7.007l-16.387-24.576a6.825 6.825 0 0 0-9.469-1.891 6.823 6.823 0 0 0-1.89 9.465z" fill="#54596E"/><path d="M124.027 87.074l54.613 81.92a6.827 6.827 0 1 0 11.36-7.576l-54.614-81.92a6.827 6.827 0 1 0-11.36 7.576M260.56 79.5l-54.613 81.92a6.827 6.827 0 0 0 11.36 7.576l54.613-81.92a6.827 6.827 0 1 0-11.36-7.576" fill="#FF7D7D"/><path d="M312.852 294.55c11.273.026 18.294-11.689 13.02-21.405-24.253-44.708-72.439-75.17-127.912-75.17-55.247 0-103.26 30.21-127.613 74.617-5.313 9.69 1.66 21.43 12.926 21.453l93.266-9.305a211.331 211.331 0 0 1 42.846.09l93.467 9.72z" fill="#54596E"/><path d="M312.852 294.55v6.825l.504-.017-.47-6.565v6.579l.47-.016-.47-6.565v6.579c6.158.017 11.695-2.524 15.506-6.451 3.828-3.922 6.084-9.221 6.09-14.865a21.257 21.257 0 0 0-2.614-10.174c-25.43-46.882-75.902-78.73-133.912-78.735-57.772.003-108.062 31.592-133.6 78.16-1.793 3.26-2.66 6.81-2.655 10.247.005 5.634 2.255 10.924 6.074 14.845 3.803 3.927 9.329 6.471 15.48 6.47l.693-.035 93.265-9.304a204.375 204.375 0 0 1 20.305-1.014c7.064 0 14.124.363 21.152 1.1l93.473 9.722.706.036v-6.822l.707-6.79-93.468-9.72a216.44 216.44 0 0 0-22.57-1.173c-7.231-.001-14.46.36-21.661 1.08l-93.266 9.305.677 6.793.016-6.827c-2.48-.022-4.325-.933-5.736-2.351-1.395-1.426-2.2-3.37-2.195-5.312.005-1.198.28-2.408.973-3.68 23.176-42.246 68.911-71.077 121.634-71.075 52.937-.005 98.838 29.07 121.912 71.6.681 1.26.954 2.466.957 3.657.006 1.95-.803 3.896-2.201 5.322-1.413 1.418-3.262 2.326-5.741 2.343l-.504.017.47 6.565v-6.579l-.47.016.47 6.565v-6.58 6.824l.706-6.79-.707 6.79z" fill="#54596E"/><path d="M159.886 279.93l-50.66 7.794v-20.608a7.806 7.806 0 0 1 6.62-7.716l44.041-6.776a259.79 259.79 0 0 1 76.234-.41l50.72 7.245a7.812 7.812 0 0 1 6.707 7.73v20.535l-57.426-8.204a259.871 259.871 0 0 0-76.236.41zm38.074-75.128c36.659 0 70.079 13.356 95.566 35.278-.06 3.528-3.18 6.226-6.687 5.724l-50.72-7.244a259.79 259.79 0 0 0-76.233.41l-43.894 6.75c-3.56.549-6.767-2.204-6.767-5.804v-5.372c24.508-18.606 55.269-29.742 88.735-29.742z" fill="#FFF"/></g></svg>