<?xml version="1.0" encoding="iso-8859-1"?>
<!-- Generator: Adobe Illustrator 21.0.0, SVG Export Plug-In . SVG Version: 6.00 Build 0)  -->
<svg xmlns="http://www.w3.org/2000/svg" xmlns:xlink="http://www.w3.org/1999/xlink" version="1.1" id="angry" x="0px" y="0px" viewBox="0 0 300 300" style="enable-background:new 0 0 300 300;" xml:space="preserve" width="512" height="512">
<g>
	<path style="fill:#EEEEF0;" d="M105.585,250.554c-16.795,2.197-27.585,5.612-27.585,9.448c0,6.625,32.236,11.998,71.999,11.998   c39.767,0,72.003-5.373,72.003-11.998c0-3.836-10.788-7.25-27.584-9.447c-13.668,6.053-28.67,9.445-44.419,9.447   C134.25,260,119.25,256.607,105.585,250.554"/>
	<path style="fill:#FF9999;" d="M251.924,187.007c6.45-14.583,10.076-30.59,10.076-47.152c0-61.857-50.144-107.852-112.002-107.852   C88.144,32.003,38,77.998,38,139.855c0,16.53,3.609,32.504,10.04,47.063c-1.545,2.386-3.016,4.812-4.386,7.308   c-4.426,8.072,1.386,17.852,10.771,17.872l8.031-0.801c20.526,26.862,52.099,44.705,87.542,44.705   c35.292,0,66.751-17.688,87.277-44.355l8.389,0.873c9.389,0.021,15.242-9.738,10.848-17.831   C255.09,192.064,253.537,189.511,251.924,187.007"/>
	<path style="fill:#54596E;" d="M251.924,187.007l3.654,1.618c6.67-15.063,10.421-31.622,10.421-48.771   c0.012-32.024-13.019-60.09-34.048-80.026C210.925,39.88,181.921,28,149.998,28c-31.919,0-60.923,11.881-81.949,31.829   c-21.03,19.937-34.061,48.002-34.048,80.026c0,17.111,3.735,33.638,10.381,48.681l3.658-1.617l-3.357-2.175   c-1.589,2.451-3.109,4.963-4.536,7.556c-1.358,2.476-2.008,5.138-2.004,7.723c0,4.239,1.699,8.234,4.581,11.193   c2.874,2.963,7.023,4.882,11.694,4.882l0.406-0.021l8.031-0.801l-0.398-3.979l-3.178,2.426   c21.188,27.74,53.904,46.274,90.72,46.279c36.658-0.005,69.259-18.376,90.448-45.917l-3.17-2.438l-0.411,3.979l8.385,0.874   l0.415,0.021l0.215-0.008l-0.187-3.703v3.707l0.187-0.004l-0.187-3.703v3.707c4.674,0.012,8.832-1.902,11.71-4.865   c2.89-2.959,4.593-6.959,4.597-11.206c0-2.564-0.638-5.211-1.975-7.666c-1.479-2.739-3.085-5.377-4.743-7.941L251.924,187.007   l3.654,1.618L251.924,187.007l-3.361,2.171c1.577,2.442,3.073,4.905,4.43,7.413c0.707,1.301,1.004,2.594,1.004,3.854   c0.004,2.081-0.85,4.117-2.313,5.613c-1.475,1.491-3.471,2.45-5.991,2.459l-0.215,0.008l0.187,3.707v-3.711l-0.187,0.004   l0.187,3.707v-3.711v3.999l0.415-3.979l-8.389-0.874c-1.382-0.146-2.735,0.435-3.581,1.54   c-19.863,25.794-50.189,42.796-84.111,42.796c-34.069,0-64.504-17.152-84.363-43.133c-0.845-1.105-2.191-1.691-3.577-1.553   l-8.031,0.801l0.398,3.979l0.012-4c-2.524-0.017-4.516-0.976-5.987-2.467c-1.463-1.5-2.313-3.532-2.309-5.609   c0.004-1.269,0.305-2.564,1.016-3.869c1.317-2.398,2.74-4.743,4.239-7.061c0.732-1.134,0.845-2.553,0.301-3.788   C45.483,171.225,42,155.8,42,139.855c0.012-29.838,12.051-55.696,31.557-74.222c19.514-18.51,46.51-29.631,76.441-29.635   c29.935,0.004,56.932,11.125,76.445,29.635c19.506,18.525,31.545,44.384,31.557,74.222c0,15.978-3.495,31.435-9.734,45.535   c-0.549,1.231-0.439,2.653,0.297,3.788L251.924,187.007"/>
	<path style="fill:#EE9295;" d="M257.065,126.077c-6.865,53.565-52.168,97.926-107.067,97.926   c-54.895,0-100.198-44.36-107.063-97.926c-0.591,4.52-0.932,9.137-0.935,13.862c0.012,15.915,3.494,31.311,9.698,45.365   c0.107,0.243,0.189,0.494,0.245,0.748c3.551,7.908,7.975,15.37,13.144,22.232c0.199,0.175,0.384,0.37,0.548,0.586   c19.469,25.47,49.103,42.455,82.359,43.112c0.015,0.001,0.026,0.001,0.04,0.001c0.108,0.002,0.221,0.004,0.329,0.006   c0.033,0.001,0.069,0.001,0.101,0.002c0.087,0.001,0.175,0.002,0.262,0.003c0.047,0.001,0.086,0.001,0.133,0.002   c0.085,0.001,0.167,0.002,0.252,0.003c0.044,0,0.09,0,0.133,0.001c0.083,0,0.165,0.001,0.248,0.001   c0.044,0,0.089,0.001,0.132,0.001c0.125,0,0.249,0.001,0.374,0.001l0,0l0,0c0.124,0,0.251-0.001,0.375-0.001   c0.04,0,0.08-0.001,0.12-0.001c0.087,0,0.174-0.001,0.261-0.001c0.04-0.001,0.079-0.001,0.119-0.001   c0.089-0.001,0.177-0.002,0.266-0.003c0.04,0,0.081-0.001,0.12-0.001c0.089-0.002,0.178-0.003,0.266-0.004   c0.036-0.001,0.068-0.001,0.104-0.002c0.101-0.002,0.203-0.003,0.304-0.005c0.022-0.001,0.047-0.001,0.069-0.002   c33.11-0.655,62.635-17.492,82.106-42.775c0.165-0.215,0.348-0.41,0.548-0.584c5.259-6.929,9.759-14.479,13.361-22.483   c0.057-0.255,0.14-0.507,0.249-0.75c6.228-14.076,9.722-29.504,9.734-45.452C257.997,135.212,257.656,130.596,257.065,126.077"/>
	<path style="fill:#54596E;" d="M149.624,252.002c0.124,0,0.25,0.001,0.374,0.001C149.873,252.003,149.748,252.002,149.624,252.002    M150.373,252.002c-0.124,0-0.251,0.001-0.375,0.001C150.122,252.003,150.249,252.002,150.373,252.002 M149.244,252   c0.084,0,0.164,0.001,0.248,0.001C149.409,252.001,149.327,252,149.244,252 M150.754,252c-0.087,0-0.175,0.001-0.261,0.001   C150.58,252.001,150.667,252,150.754,252 M148.859,251.997c0.083,0.001,0.168,0.002,0.252,0.003   C149.026,251.999,148.944,251.998,148.859,251.997 M151.139,251.997c-0.089,0.001-0.177,0.002-0.266,0.003   C150.964,251.999,151.048,251.998,151.139,251.997 M151.526,251.992c-0.089,0.001-0.177,0.002-0.266,0.004   C151.347,251.994,151.439,251.993,151.526,251.992 M148.464,251.992c0.087,0.001,0.175,0.002,0.262,0.003   C148.639,251.994,148.551,251.993,148.464,251.992 M151.935,251.985c-0.101,0.002-0.203,0.003-0.304,0.005   C151.732,251.988,151.833,251.987,151.935,251.985 M148.034,251.984c0.109,0.002,0.22,0.004,0.329,0.006   C148.255,251.988,148.142,251.986,148.034,251.984 M234.657,208.624c-0.199,0.174-0.383,0.369-0.548,0.584   c-19.47,25.283-48.996,42.12-82.106,42.775C185.495,251.324,215.26,234.177,234.657,208.624 M65.087,208.285   c19.39,25.742,49.27,43.036,82.907,43.698c-33.257-0.657-62.89-17.643-82.359-43.112C65.47,208.655,65.286,208.459,65.087,208.285    M42,139.939c0,0.021,0,0.041,0,0.062c0,16.186,3.562,31.839,9.943,46.051c-0.056-0.254-0.138-0.505-0.245-0.748   C45.494,171.25,42.012,155.854,42,139.939 M258,139.938c-0.012,15.948-3.506,31.376-9.734,45.452   c-0.109,0.243-0.191,0.495-0.249,0.75c6.408-14.236,9.983-29.917,9.983-46.139C258,139.98,258,139.958,258,139.938"/>
	<polyline style="fill:#FF9999;" points="183.601,109.601 174,124.001 198,124.001  "/>
	<path style="fill:#54596E;" d="M180.273,107.381l-9.602,14.4c-0.822,1.231-0.897,2.802-0.199,4.106   C171.172,127.194,172.52,128,174,128h24c2.208,0,3.999-1.791,3.999-3.999c0-2.209-1.791-3.999-3.999-3.999l-16.526-0.001   l5.456-8.182c1.225-1.839,0.729-4.321-1.109-5.547C183.982,105.047,181.499,105.543,180.273,107.381L180.273,107.381z"/>
	<polyline style="fill:#FF9999;" points="116.398,109.601 126,124.001 102,124.001  "/>
	<path style="fill:#54596E;" d="M113.07,111.82l5.455,8.181L102,120.001c-2.209,0-4,1.79-4,4c0,2.209,1.791,4,4,4L126,128   c1.48,0,2.828-0.807,3.527-2.112c0.698-1.305,0.623-2.875-0.199-4.106l-9.602-14.4c-1.226-1.839-3.71-2.335-5.548-1.108   C112.34,107.499,111.844,109.982,113.07,111.82L113.07,111.82z"/>
	<path style="fill:#FF7D7D;" d="M106.672,79.02l32,48c1.225,1.838,3.709,2.334,5.547,1.109c1.838-1.226,2.335-3.709,1.109-5.548   l-32-48c-1.225-1.838-3.709-2.334-5.547-1.109C105.943,74.698,105.446,77.181,106.672,79.02"/>
	<path style="fill:#FF7D7D;" d="M186.672,74.582l-32,48c-1.225,1.839-0.729,4.322,1.109,5.548c1.838,1.225,4.322,0.729,5.547-1.109   l32-48c1.225-1.839,0.729-4.322-1.109-5.548C190.38,72.248,187.897,72.744,186.672,74.582"/>
	<path style="fill:#54596E;" d="M217.312,200.588c6.605,0.015,10.719-6.849,7.629-12.542   c-14.211-26.196-42.445-44.045-74.949-44.045c-32.371,0-60.504,17.701-74.773,43.721c-3.113,5.678,0.973,12.557,7.574,12.57   l54.648-5.452c8.348-0.833,16.762-0.815,25.105,0.053L217.312,200.588z"/>
	<path style="fill:#54596E;" d="M217.312,200.588v3.999l0.295-0.01l-0.275-3.847l0,3.855l0.275-0.009l-0.275-3.847l0,3.855   c3.608,0.01,6.852-1.479,9.085-3.78c2.243-2.298,3.565-5.403,3.568-8.71c0.002-1.997-0.495-4.06-1.531-5.961   c-14.901-27.47-44.474-46.131-78.464-46.134c-33.851,0.002-63.318,18.511-78.281,45.797c-1.051,1.91-1.559,3.99-1.556,6.004   c0.003,3.301,1.321,6.401,3.559,8.698c2.228,2.301,5.466,3.792,9.07,3.791l0.406-0.02l54.648-5.452   c3.956-0.395,7.927-0.594,11.897-0.594c4.139,0,8.276,0.213,12.394,0.645l54.769,5.696l0.414,0.021V200.588l0.414-3.979   l-54.766-5.695c-4.396-0.46-8.812-0.688-13.225-0.687c-4.237-0.001-8.473,0.211-12.692,0.633l-54.648,5.452l0.397,3.98l0.009-4   c-1.453-0.013-2.534-0.547-3.361-1.378c-0.817-0.835-1.289-1.974-1.286-3.112c0.003-0.702,0.164-1.411,0.57-2.156   C92.302,164.892,119.1,147.999,149.992,148c31.018-0.003,57.913,17.033,71.433,41.953c0.399,0.738,0.559,1.445,0.561,2.143   c0.003,1.143-0.471,2.283-1.29,3.118c-0.828,0.831-1.911,1.363-3.364,1.373l-0.295,0.01l0.275,3.847v-3.855l-0.275,0.009   l0.275,3.847v-3.855V200.588l0.414-3.979L217.312,200.588z"/>
	<path style="fill:#FFFFFF;" d="M127.683,192.022L98,196.588v-12.075c0-2.258,1.648-4.179,3.879-4.521l25.805-3.97   c14.797-2.276,29.848-2.357,44.668-0.24l29.719,4.245c2.254,0.322,3.93,2.253,3.93,4.529v12.032l-33.648-4.807   C157.531,189.665,142.48,189.746,127.683,192.022z"/>
	<path style="fill:#FFFFFF;" d="M149.992,148.001c21.48,0,41.062,7.826,55.996,20.671c-0.035,2.067-1.863,3.648-3.918,3.354   l-29.719-4.245c-14.82-2.117-29.871-2.036-44.668,0.24l-25.719,3.956c-2.086,0.321-3.965-1.292-3.965-3.401v-3.148   C112.359,154.526,130.383,148.001,149.992,148.001z"/>
</g>















</svg>
