<?xml version="1.0" encoding="UTF-8"?>
<svg width="396px" height="418px" viewBox="0 0 396 418" version="1.1" xmlns="http://www.w3.org/2000/svg" xmlns:xlink="http://www.w3.org/1999/xlink">
    <!-- Generator: Sketch 52.6 (67491) - http://www.bohemiancoding.com/sketch -->
    <title>cool</title>
    <desc>Created with Sketch.</desc>
    <g id="Page-1" stroke="none" stroke-width="1" fill="none" fill-rule="evenodd">
        <g id="cool" transform="translate(0.026667, 0.786667)">
            <path d="M273.800533,379.83232 C250.461867,390.161067 224.851627,395.946667 197.976747,395.946667 C171.098453,395.946667 145.488213,390.161067 122.149547,379.835733 C93.4997333,383.58016 75.0933333,389.405013 75.0933333,395.946667 C75.0933333,407.25504 130.11456,416.426667 197.976747,416.426667 C265.838933,416.426667 320.853333,407.25504 320.853333,395.946667 C320.853333,389.405013 302.446933,383.58016 273.800533,379.83232" id="Path" fill="#EEEEF0"></path>
            <path d="M389.12,190.89408 C389.12,85.3282133 303.54432,6.82666667 197.976747,6.82666667 C92.4091733,6.82666667 6.82666667,85.3282133 6.82666667,190.89408 C6.82666667,296.459947 92.4091733,389.12 197.976747,389.12 C303.54432,389.12 389.12,296.461653 389.12,190.89408" id="Path" fill="#66B317"></path>
            <path d="M389.12,190.89408 L395.946667,190.89408 C395.967147,136.24832 373.72416,88.3438933 337.834667,54.3232 C301.950293,20.2717867 252.453547,0 197.976747,0 C143.49312,0 93.9963733,20.2734933 58.112,54.3232 C22.2225067,88.3438933 -0.0136533333,136.24832 8.47032947e-22,190.89408 C0.00682666667,245.53984 22.1218133,296.722773 57.8696533,334.298453 C93.59872,371.87584 143.156907,395.946667 197.976747,395.946667 C252.78976,395.946667 302.347947,371.87584 338.08384,334.30016 C373.82656,296.722773 395.941547,245.53984 395.948373,190.895787 L389.12,190.895787 L382.293333,190.895787 C382.306987,241.8176 361.63072,289.749333 328.193707,324.89472 C294.74304,360.0384 248.726187,382.29504 197.978453,382.301867 C147.223893,382.29504 101.213867,360.0384 67.7632,324.89472 C34.3261867,289.749333 13.64992,241.8176 13.6567467,190.895787 C13.6772267,139.9808 34.2254933,95.8464 67.5157333,64.2286933 C100.816213,32.6314667 146.885973,13.66016 197.976747,13.6533333 C249.060693,13.66016 295.13728,32.62976 328.434347,64.2269867 C361.731413,95.8429867 382.27968,139.979093 382.293333,190.89408 L389.12,190.89408" id="Path" fill="#54596E"></path>
            <path d="M380.699307,167.381333 C368.979627,258.804053 291.669333,334.506667 197.976747,334.506667 C104.28416,334.506667 26.97216,258.804053 15.24736,167.381333 C14.2370133,175.097173 13.66016,182.981973 13.65504,191.051093 C13.69088,241.913173 34.3586133,289.785173 67.7614933,324.893013 C101.21216,360.036693 147.222187,382.293333 197.976747,382.30016 C248.72448,382.293333 294.741333,360.034987 328.192,324.893013 C361.59488,289.785173 382.262613,241.916587 382.291627,191.0528 C382.286507,182.981973 381.709653,175.09888 380.699307,167.381333 L479.052845,262.94847" id="Path" fill="#52980C"></path>
            <path d="M382.291627,191.0528 C382.262613,241.916587 361.593173,289.785173 328.192,324.893013 C294.741333,360.036693 248.72448,382.293333 197.976747,382.30016 C299.774293,382.30016 382.291627,292.947627 382.291627,191.15008 C382.291627,191.117653 382.291627,191.085227 382.291627,191.0528 M13.65504,191.051093 C13.65504,191.08352 13.65504,191.115947 13.65504,191.15008 C13.65504,292.94592 96.1792,382.30016 197.976747,382.30016 C147.222187,382.293333 101.21216,360.036693 67.7614933,324.893013 C34.3586133,289.783467 13.69088,241.913173 13.65504,191.051093" id="Shape" fill="#54596E" fill-rule="nonzero"></path>
            <path d="M197.97504,286.72 C226.244267,286.718293 252.75392,283.24864 275.682987,277.13024 C298.61376,270.993067 317.974187,262.270293 332.02688,251.333973 C334.998187,249.014613 335.52896,244.72576 333.2096,241.754453 C330.89024,238.78144 326.601387,238.250667 323.63008,240.571733 C311.6544,249.9328 293.797547,258.18112 272.162133,263.94112 C250.525013,269.719893 225.12128,273.071787 197.97504,273.07008 C194.205013,273.07008 191.148373,276.125013 191.148373,279.896747 C191.148373,283.665067 194.205013,286.721707 197.97504,286.72 Z" id="Path" fill="#54596E"></path>
            <path d="M126.49472,211.628373 L85.1421867,211.628373 C68.2820267,211.628373 54.61504,197.961387 54.61504,181.101227 L54.61504,158.86336 C54.61504,131.45088 76.8375467,109.228373 104.251733,109.228373 L145.604267,109.228373 C162.461013,109.228373 176.128,122.89536 176.128,139.75552 L176.128,161.993387 C176.128,189.405867 153.9072,211.628373 126.49472,211.628373 Z" id="Path" fill="#54596E"></path>
            <path d="M126.49472,211.628373 L126.49472,204.801707 L85.1421867,204.801707 C72.0554667,204.776107 61.4656,194.187947 61.4417067,181.101227 L61.4417067,158.86336 C61.44512,147.0208 66.22208,136.36096 73.9805867,128.59392 C81.7493333,120.835413 92.4074667,116.058453 104.251733,116.053333 L145.604267,116.053333 C158.687573,116.078933 169.27744,126.667093 169.301333,139.75552 L169.301333,161.993387 C169.29792,173.83424 164.52096,184.49408 156.76416,192.26112 C148.995413,200.019627 138.33728,204.796587 126.49472,204.801707 L126.49472,211.628373 L126.49472,218.453333 C157.68064,218.44992 182.949547,193.175893 182.954667,161.993387 L182.954667,139.75552 C182.949547,119.12192 166.234453,102.40512 145.604267,102.401707 L104.251733,102.401707 C73.0658133,102.40512 47.7934933,127.679147 47.7883733,158.86336 L47.7883733,181.101227 C47.7917867,201.73312 64.5085867,218.44992 85.1421867,218.453333 L126.49472,218.453333 L126.49472,211.628373 Z" id="Path" fill="#54596E"></path>
            <path d="M268.091733,211.628373 L310.807893,211.628373 C327.668053,211.628373 341.33504,197.961387 341.33504,181.101227 L341.33504,158.86336 C341.33504,131.45088 319.112533,109.228373 291.698347,109.228373 L248.982187,109.228373 C232.122027,109.228373 218.45504,122.89536 218.45504,139.75552 L218.45504,161.993387 C218.45504,189.405867 240.677547,211.628373 268.091733,211.628373 Z" id="Path" fill="#54596E"></path>
            <path d="M268.091733,211.628373 L268.091733,218.453333 L310.807893,218.453333 C331.439787,218.44992 348.156587,201.73312 348.161707,181.101227 L348.161707,158.86336 C348.156587,127.679147 322.884267,102.40512 291.698347,102.401707 L248.982187,102.401707 C228.350293,102.40512 211.633493,119.12192 211.628373,139.75552 L211.628373,161.993387 C211.633493,193.175893 236.905813,218.44992 268.091733,218.453333 L268.091733,211.628373 L268.091733,204.801707 C256.249173,204.796587 245.589333,200.019627 237.820587,192.26112 C230.06208,184.492373 225.28512,173.83424 225.281707,161.993387 L225.281707,139.75552 C225.3056,126.667093 235.89376,116.078933 248.982187,116.053333 L291.698347,116.053333 C303.540907,116.058453 314.200747,120.835413 321.969493,128.59392 C329.728,136.362667 334.50496,147.0208 334.508373,158.86336 L334.508373,181.101227 C334.48448,194.187947 323.89632,204.776107 310.807893,204.801707 L268.091733,204.801707 L268.091733,211.628373 Z" id="Path" fill="#54596E"></path>
            <path d="M314.028373,157.01504 L382.29504,157.01504 C386.065067,157.01504 389.121707,153.9584 389.121707,150.188373 C389.121707,146.41664 386.065067,143.361707 382.29504,143.361707 L314.028373,143.361707 C310.258347,143.361707 307.201707,146.41664 307.201707,150.188373 C307.201707,153.9584 310.258347,157.01504 314.028373,157.01504" id="Path" fill="#54596E"></path>
            <path d="M13.65504,157.01504 L81.9217067,157.01504 C85.6917333,157.01504 88.7483733,153.9584 88.7483733,150.188373 C88.7483733,146.41664 85.6917333,143.361707 81.9217067,143.361707 L13.65504,143.361707 C9.88501333,143.361707 6.82837333,146.41664 6.82837333,150.188373 C6.82837333,153.9584 9.88501333,157.01504 13.65504,157.01504" id="Path" fill="#54596E"></path>
            <path d="M163.841707,129.708373 L232.108373,129.708373 C235.8784,129.708373 238.93504,126.651733 238.93504,122.881707 C238.93504,119.109973 235.8784,116.05504 232.108373,116.05504 L163.841707,116.05504 C160.07168,116.05504 157.01504,119.109973 157.01504,122.881707 C157.01504,126.651733 160.07168,129.708373 163.841707,129.708373" id="Path" fill="#54596E"></path>
            <path d="M90.74688,118.053547 L63.4402133,145.360213 C60.7744,148.026027 60.7744,152.349013 63.4402133,155.014827 C66.1060267,157.68064 70.4290133,157.68064 73.0948267,155.014827 L100.401493,127.70816 C103.067307,125.042347 103.067307,120.71936 100.401493,118.053547 C97.73568,115.38944 93.4126933,115.38944 90.74688,118.053547" id="Path" fill="#55A6FF"></path>
            <path d="M254.58688,118.053547 L227.280213,145.360213 C224.6144,148.026027 224.6144,152.349013 227.280213,155.014827 C229.946027,157.68064 234.269013,157.68064 236.934827,155.014827 L264.241493,127.70816 C266.907307,125.042347 266.907307,120.71936 264.241493,118.053547 C261.57568,115.38944 257.252693,115.38944 254.58688,118.053547" id="Path" fill="#55A6FF"></path>
        </g>
    </g>
</svg>