<svg width="512" height="512" xmlns="http://www.w3.org/2000/svg"><g transform="translate(58 47)" fill="none" fill-rule="evenodd"><path d="M273.827 380.619c-23.338 10.329-48.949 16.114-75.824 16.114-26.878 0-52.488-5.785-75.827-16.11-28.65 3.744-47.056 9.569-47.056 16.11 0 11.309 55.021 20.48 122.883 20.48 67.863 0 122.877-9.171 122.877-20.48 0-6.541-18.406-12.366-47.053-16.114" fill="#EEEEF0"/><path d="M389.147 191.68c0-105.565-85.576-184.067-191.144-184.067-105.567 0-191.15 78.502-191.15 184.068 0 105.566 85.583 198.226 191.15 198.226 105.568 0 191.144-92.659 191.144-198.226" fill="#66B317"/><path d="M389.147 191.68h6.826c.02-54.645-22.222-102.55-58.112-136.57C301.977 21.058 252.481.787 198.003.787 143.52.787 94.023 21.06 58.14 55.11 22.249 89.13.013 137.035.027 191.68c.006 54.647 22.121 105.83 57.87 143.405 35.728 37.578 85.287 61.648 140.106 61.648 54.813 0 104.372-24.07 140.108-61.646 35.742-37.578 57.857-88.76 57.864-143.405H382.32c.014 50.922-20.663 98.854-54.1 134-33.45 35.143-79.467 57.4-130.215 57.407-50.754-.007-96.764-22.264-130.215-57.408-33.437-35.145-54.113-83.077-54.107-133.999.02-50.915 20.57-95.049 53.86-126.667 33.3-31.597 79.37-50.568 130.46-50.575 51.084.007 97.16 18.976 130.458 50.574 33.297 31.616 53.845 75.752 53.859 126.667h6.827" fill="#54596E"/><path d="M382.318 191.84c-.029 50.863-20.698 98.732-54.1 133.84-33.45 35.143-79.467 57.4-130.215 57.407 101.798 0 184.315-89.353 184.315-191.15v-.098m-368.636-.001v.099c0 101.796 82.524 191.15 184.321 191.15-50.754-.007-96.764-22.264-130.215-57.407-33.403-35.11-54.07-82.98-54.106-133.842" fill="#54596E" fill-rule="nonzero"/><path d="M198.002 287.507c28.269-.002 54.779-3.472 77.708-9.59 22.93-6.137 42.29-14.86 56.344-25.796a6.825 6.825 0 0 0 1.182-9.58 6.822 6.822 0 0 0-9.58-1.183c-11.975 9.361-29.832 17.61-51.467 23.37-21.637 5.779-47.041 9.13-74.187 9.129a6.826 6.826 0 1 0 0 13.65zm-71.48-75.092H85.168c-16.86 0-30.527-13.667-30.527-30.527V159.65c0-27.412 22.222-49.635 49.636-49.635h41.353c16.857 0 30.524 13.667 30.524 30.527v22.238c0 27.413-22.221 49.635-49.634 49.635z" fill="#54596E"/><path d="M126.521 212.415v-6.827H85.17c-13.087-.025-23.677-10.613-23.7-23.7V159.65c.003-11.843 4.78-22.502 12.538-30.27 7.769-7.758 18.427-12.535 30.271-12.54h41.353c13.083.026 23.673 10.614 23.697 23.702v22.238c-.003 11.84-4.78 22.5-12.537 30.268-7.769 7.758-18.427 12.535-30.27 12.54V219.24c31.186-.003 56.455-25.277 56.46-56.46v-22.238c-.005-20.633-16.72-37.35-37.35-37.354h-41.353c-31.186.004-56.458 25.278-56.463 56.462v22.238c.003 20.632 16.72 37.349 37.354 37.352h41.352v-6.825zm141.597 0h42.717c16.86 0 30.527-13.667 30.527-30.527V159.65c0-27.412-22.223-49.635-49.637-49.635h-42.716c-16.86 0-30.527 13.667-30.527 30.527v22.238c0 27.413 22.222 49.635 49.636 49.635z" fill="#54596E"/><path d="M268.118 212.415v6.825h42.717c20.631-.003 37.348-16.72 37.353-37.352V159.65c-.005-31.184-25.277-56.458-56.463-56.462h-42.716c-20.632.004-37.349 16.72-37.354 37.354v22.238c.005 31.183 25.277 56.457 56.463 56.46V205.588c-11.842-.005-22.502-4.782-30.27-12.54-7.76-7.769-12.536-18.427-12.54-30.268v-22.238c.024-13.088 10.612-23.676 23.7-23.702h42.717c11.843.005 22.502 4.782 30.271 12.54 7.759 7.77 12.536 18.427 12.539 30.27v22.238c-.024 13.087-10.612 23.675-23.7 23.7h-42.717v6.827z" fill="#54596E"/><path d="M314.055 157.802h68.267a6.827 6.827 0 0 0 0-13.654h-68.267a6.827 6.827 0 0 0 0 13.653m-300.373 0h68.266a6.827 6.827 0 0 0 0-13.653H13.682a6.827 6.827 0 0 0 0 13.653m150.186-27.306h68.267a6.827 6.827 0 0 0 0-13.653h-68.267a6.827 6.827 0 0 0 0 13.653" fill="#54596E"/><path d="M90.774 118.84l-27.307 27.307a6.827 6.827 0 0 0 9.654 9.654l27.307-27.306a6.827 6.827 0 0 0-9.654-9.655m163.84 0l-27.307 27.307a6.827 6.827 0 0 0 9.654 9.654l27.307-27.306a6.827 6.827 0 0 0-9.654-9.655" fill="#55A6FF"/></g></svg>