<svg xmlns="http://www.w3.org/2000/svg" viewBox="0 0 512.008 512.008" width="512" height="512"><path d="M38.744 512.004c-21.395 0-38.74-17.317-38.74-38.679V146.723c0-5.523 4.477-10 10-10h67.48v336.602c0 21.362-17.345 38.679-38.74 38.679z" fill="#AECEF2"/><path d="M38.744 512.004c21.396 0 38.74-17.317 38.74-38.679V136.723h-38.74v375.281z" fill="#AECEF2"/><path d="M87.484.004c-5.523 0-10 4.477-10 10V473.326c0 21.362-17.344 38.679-38.74 38.679h390.147c29.334 0 53.114-23.742 53.114-53.03V10.004c0-5.523-4.477-10-10-10H87.484z" fill="#F0F6FE"/><g><path d="M406.996 270.505H147.949c-8.284 0-15-6.716-15-15s6.716-15 15-15h259.047c8.284 0 15 6.716 15 15s-6.715 15-15 15z" fill="#AECEF2"/><path d="M406.996 210.505H147.949c-8.284 0-15-6.716-15-15s6.716-15 15-15h259.047c8.284 0 15 6.716 15 15s-6.715 15-15 15z" fill="#606A70"/><path d="M472.004.004H277.566V473.326c0 21.362-17.344 38.679-38.74 38.679H428.89c29.334 0 53.114-23.742 53.114-53.03V10.004c0-5.523-4.477-10-10-10z" fill="#C9DFF7"/><path d="M406.996 240.505h-129.43v30h129.43c8.284 0 15-6.716 15-15s-6.715-15-15-15zm0-60h-129.43v30h129.43c8.284 0 15-6.716 15-15s-6.715-15-15-15z" fill="#9EBBDB"/><path d="M406.996 150.504H147.949c-8.284 0-15-6.716-15-15V73.511c0-8.284 6.716-15 15-15h259.047c8.284 0 15 6.716 15 15v61.993c0 8.284-6.715 15-15 15z" fill="#606A70"/><path d="M406.996 58.511h-129.43v91.993h129.43c8.284 0 15-6.716 15-15V73.511c0-8.284-6.715-15-15-15z" fill="#414952"/><path d="M248.588 450.507H147.949c-8.284 0-15-6.716-15-15 0-8.284 6.716-15 15-15h100.639c8.284 0 15 6.716 15 15 0 8.284-6.716 15-15 15z" fill="#606A70"/><path d="M406.996 450.507H306.358c-8.284 0-15-6.716-15-15 0-8.284 6.716-15 15-15h100.639c8.284 0 15 6.716 15 15-.001 8.284-6.716 15-15.001 15z" fill="#414952"/><path d="M248.588 390.506H147.949c-8.284 0-15-6.716-15-15 0-8.284 6.716-15 15-15h100.639c8.284 0 15 6.716 15 15 0 8.284-6.716 15-15 15z" fill="#AECEF2"/><path d="M406.996 390.506H306.358c-8.284 0-15-6.716-15-15 0-8.284 6.716-15 15-15h100.639c8.284 0 15 6.716 15 15-.001 8.284-6.716 15-15.001 15z" fill="#414952"/><path d="M248.588 330.506H147.949c-8.284 0-15-6.716-15-15 0-8.284 6.716-15 15-15h100.639c8.284 0 15 6.716 15 15 0 8.284-6.716 15-15 15z" fill="#AECEF2"/><path d="M406.996 330.506H306.358c-8.284 0-15-6.716-15-15 0-8.284 6.716-15 15-15h100.639c8.284 0 15 6.716 15 15-.001 8.284-6.716 15-15.001 15z" fill="#9EBBDB"/></g><g><path fill="#FFFFFF" d="M497.004 308.563L81.487 460.741 15.004 276.885 430.522 124.707z"/><path d="M81.487 475.741a15.005 15.005 0 0 1-14.107-9.899L.898 281.986c-2.809-7.767 1.191-16.345 8.948-19.185l415.518-152.179a15.007 15.007 0 0 1 11.498.49 15.008 15.008 0 0 1 7.767 8.494l66.482 183.856c2.809 7.768-1.191 16.345-8.948 19.186L86.645 474.826a14.972 14.972 0 0 1-5.158.915z" fill="#DB0253"/><path d="M277.566 215.544V164.75L9.846 262.8c-7.757 2.841-11.757 11.418-8.948 19.186L67.38 465.842a14.998 14.998 0 0 0 19.265 8.984l190.921-69.923V215.544z" fill="#FE5857"/><g><path d="M91.502 305.802c-1.543-4.239 2.189-8 6.695-9.64l45.979-16.734c4.372-1.592 7.916 2.371 9.459 6.611 1.784 4.902 1.075 9.963-2.9 11.41l-34.317 12.49 8.15 22.393 20.008-7.282c3.975-1.446 7.626 1.576 9.169 5.815 1.303 3.578.99 8.492-3.383 10.084l-20.008 7.282 12.443 34.187c1.543 4.24-2.853 8.241-8.021 10.122-5.167 1.881-11.106 1.642-12.65-2.599l-30.624-84.139zm88.02 60.849c-.145-.397-.205-.976-.266-1.554l-4.773-89.797c-.23-5.168 4.912-9.591 11.008-11.81 6.096-2.218 12.877-2.135 16.023 1.971l54.195 71.809c.326.482.652.964.797 1.361 1.783 4.902-4.467 11.229-10.164 13.303-3.313 1.206-6.349 1.109-8.156-1.383l-10.533-14.923-27.958 10.176 1.523 18.202c.219 3.071-2.046 5.097-5.359 6.303-5.699 2.073-14.553 1.244-16.337-3.658zm37.97-45.332l-22.598-31.991 3.252 39.032 19.346-7.041zm23.418-70.046c-1.591-4.373 2.9-8.109 8.067-9.99 5.168-1.881 11.012-1.906 12.603 2.467l11.574 31.801 11.998-44.132c.686-2.65 2.25-4.121 4.371-4.893 5.299-1.93 14.168.995 16.049 6.164.386 1.06.65 2.613.121 4.456l-11.795 35.206 42.716 32.02c1.048.818 1.879 1.866 2.313 3.06 1.881 5.167-2.73 12.697-8.693 14.868-2.783 1.013-5.818.917-8.555-1.238l-35.196-26.204-2.96 9.182 8.729 23.982c1.543 4.24-2.853 8.241-8.021 10.122-5.167 1.881-11.106 1.642-12.649-2.599l-30.672-84.272zm114.729-3.044l19.875-7.234c3.977-1.446 7.627 1.576 9.17 5.816 1.303 3.578.99 8.493-3.383 10.085l-19.875 7.233 8.199 22.526 35.51-12.925c3.975-1.446 7.771 1.973 9.557 6.876 1.543 4.239 1.375 9.553-2.998 11.145l-47.17 17.169c-4.505 1.64-9.781 1.159-11.325-3.081l-30.624-84.14c-1.543-4.239 2.19-8 6.695-9.64l47.17-17.169c4.373-1.592 7.916 2.372 9.46 6.612 1.784 4.902 1.075 9.963-2.9 11.409l-35.511 12.925 8.15 22.393z" fill="#FFFFFF"/></g></g></svg>