<?xml version="1.0" encoding="iso-8859-1"?>
<!-- Generator: Adobe Illustrator 21.0.0, SVG Export Plug-In . SVG Version: 6.00 Build 0)  -->
<svg xmlns="http://www.w3.org/2000/svg" xmlns:xlink="http://www.w3.org/1999/xlink" version="1.1" id="Capa_1" x="0px" y="0px" viewBox="0 0 512.008 512.008" style="enable-background:new 0 0 512.008 512.008;" xml:space="preserve" width="512" height="512">
<g>
	<g>
		<g>
			<path style="fill:#AECEF2;" d="M38.744,512.004L38.744,512.004c-21.395,0-38.74-17.317-38.74-38.679V146.723     c0-5.523,4.477-10,10-10h67.48v336.602C77.484,494.687,60.139,512.004,38.744,512.004z"/>
			<path style="fill:#AECEF2;" d="M38.744,512.004c21.396,0,38.74-17.317,38.74-38.679V136.723h-38.74V512.004z"/>
			<g>
				<path style="fill:#F0F6FE;" d="M87.484,0.004c-5.523,0-10,4.477-10,10v205.54V438.4v34.926c0,21.362-17.344,38.679-38.74,38.679      h390.147c29.334,0,53.114-23.742,53.114-53.03V10.004c0-5.523-4.477-10-10-10H87.484z"/>
			</g>
		</g>
		<g>
			<g>
				<path style="fill:#AECEF2;" d="M406.996,270.505H147.949c-8.284,0-15-6.716-15-15s6.716-15,15-15h259.047      c8.284,0,15,6.716,15,15S415.281,270.505,406.996,270.505z"/>
			</g>
			<g>
				<path style="fill:#606A70;" d="M406.996,210.505H147.949c-8.284,0-15-6.716-15-15s6.716-15,15-15h259.047      c8.284,0,15,6.716,15,15S415.281,210.505,406.996,210.505z"/>
			</g>
			<path style="fill:#C9DFF7;" d="M472.004,0.004H277.566v215.54v235.058v22.724c0,21.362-17.344,38.679-38.74,38.679H428.89     c29.334,0,53.114-23.742,53.114-53.03V10.004C482.004,4.481,477.527,0.004,472.004,0.004z"/>
			<path style="fill:#9EBBDB;" d="M406.996,240.505h-129.43v30h129.43c8.284,0,15-6.716,15-15S415.281,240.505,406.996,240.505z"/>
			<path style="fill:#9EBBDB;" d="M406.996,180.505h-129.43v30h129.43c8.284,0,15-6.716,15-15S415.281,180.505,406.996,180.505z"/>
			<g>
				<path style="fill:#606A70;" d="M406.996,150.504H147.949c-8.284,0-15-6.716-15-15V73.511c0-8.284,6.716-15,15-15h259.047      c8.284,0,15,6.716,15,15v61.993C421.996,143.788,415.281,150.504,406.996,150.504z"/>
			</g>
			<path style="fill:#414952;" d="M406.996,58.511h-129.43v91.993h129.43c8.284,0,15-6.716,15-15V73.511     C421.996,65.227,415.281,58.511,406.996,58.511z"/>
			<g>
				<g>
					<path style="fill:#606A70;" d="M248.588,450.507H147.949c-8.284,0-15-6.716-15-15c0-8.284,6.716-15,15-15h100.639       c8.284,0,15,6.716,15,15C263.588,443.791,256.872,450.507,248.588,450.507z"/>
				</g>
				<g>
					<path style="fill:#414952;" d="M406.996,450.507H306.358c-8.284,0-15-6.716-15-15c0-8.284,6.716-15,15-15h100.639       c8.284,0,15,6.716,15,15C421.996,443.791,415.281,450.507,406.996,450.507z"/>
				</g>
				<g>
					<path style="fill:#AECEF2;" d="M248.588,390.506H147.949c-8.284,0-15-6.716-15-15c0-8.284,6.716-15,15-15h100.639       c8.284,0,15,6.716,15,15C263.588,383.79,256.872,390.506,248.588,390.506z"/>
				</g>
				<g>
					<path style="fill:#414952;" d="M406.996,390.506H306.358c-8.284,0-15-6.716-15-15c0-8.284,6.716-15,15-15h100.639       c8.284,0,15,6.716,15,15C421.996,383.79,415.281,390.506,406.996,390.506z"/>
				</g>
				<g>
					<path style="fill:#AECEF2;" d="M248.588,330.506H147.949c-8.284,0-15-6.716-15-15c0-8.284,6.716-15,15-15h100.639       c8.284,0,15,6.716,15,15C263.588,323.79,256.872,330.506,248.588,330.506z"/>
				</g>
				<g>
					<path style="fill:#9EBBDB;" d="M406.996,330.506H306.358c-8.284,0-15-6.716-15-15c0-8.284,6.716-15,15-15h100.639       c8.284,0,15,6.716,15,15C421.996,323.79,415.281,330.506,406.996,330.506z"/>
				</g>
			</g>
		</g>
	</g>
	<g>
		<g>
			<polygon style="fill:#FFFFFF;" points="497.004,308.563 81.487,460.741 15.004,276.885 430.522,124.707    "/>
			<path style="fill:#DB0253;" d="M81.487,475.741c-2.17,0-4.335-0.471-6.34-1.405c-3.615-1.686-6.41-4.743-7.767-8.494     L0.898,281.986c-2.809-7.767,1.191-16.345,8.948-19.185l415.518-152.179c3.745-1.372,7.884-1.194,11.498,0.49     c3.615,1.687,6.41,4.743,7.767,8.494l66.482,183.856c2.809,7.768-1.191,16.345-8.948,19.186L86.645,474.826     C84.977,475.438,83.23,475.741,81.487,475.741z"/>
			<path style="fill:#FE5857;" d="M277.566,215.544V164.75L9.846,262.8c-7.757,2.841-11.757,11.418-8.948,19.186L67.38,465.842     c1.356,3.751,4.151,6.808,7.767,8.494c2.005,0.935,4.17,1.405,6.34,1.405c1.743,0,3.49-0.304,5.158-0.915l190.921-69.923V215.544     z"/>
		</g>
		<g>
			<path style="fill:#FFFFFF;" d="M91.502,305.802c-1.543-4.239,2.189-8,6.695-9.64l45.979-16.734     c4.372-1.592,7.916,2.371,9.459,6.611c1.784,4.902,1.075,9.963-2.9,11.41l-34.317,12.49l8.15,22.393l20.008-7.282     c3.975-1.446,7.626,1.576,9.169,5.815c1.303,3.578,0.99,8.492-3.383,10.084l-20.008,7.282l12.443,34.187     c1.543,4.24-2.853,8.241-8.021,10.122c-5.167,1.881-11.106,1.642-12.65-2.599L91.502,305.802z"/>
			<path style="fill:#FFFFFF;" d="M179.522,366.651c-0.145-0.397-0.205-0.976-0.266-1.554l-4.773-89.797     c-0.23-5.168,4.912-9.591,11.008-11.81c6.096-2.218,12.877-2.135,16.023,1.971l54.195,71.809     c0.326,0.482,0.652,0.964,0.797,1.361c1.783,4.902-4.467,11.229-10.164,13.303c-3.313,1.206-6.349,1.109-8.156-1.383     l-10.533-14.923l-27.958,10.176l1.523,18.202c0.219,3.071-2.046,5.097-5.359,6.303     C190.16,372.382,181.306,371.553,179.522,366.651z M217.492,321.319l-22.598-31.991l3.252,39.032L217.492,321.319z"/>
			<path style="fill:#FFFFFF;" d="M240.91,251.273c-1.591-4.373,2.9-8.109,8.067-9.99c5.168-1.881,11.012-1.906,12.603,2.467     l11.574,31.801l11.998-44.132c0.686-2.65,2.25-4.121,4.371-4.893c5.299-1.93,14.168,0.995,16.049,6.164     c0.386,1.06,0.65,2.613,0.121,4.456l-11.795,35.206l42.716,32.02c1.048,0.818,1.879,1.866,2.313,3.06     c1.881,5.167-2.73,12.697-8.693,14.868c-2.783,1.013-5.818,0.917-8.555-1.238l-35.196-26.204l-2.96,9.182l8.729,23.982     c1.543,4.24-2.853,8.241-8.021,10.122c-5.167,1.881-11.106,1.642-12.649-2.599L240.91,251.273z"/>
			<path style="fill:#FFFFFF;" d="M355.639,248.229l19.875-7.234c3.977-1.446,7.627,1.576,9.17,5.816     c1.303,3.578,0.99,8.493-3.383,10.085l-19.875,7.233l8.199,22.526l35.51-12.925c3.975-1.446,7.771,1.973,9.557,6.876     c1.543,4.239,1.375,9.553-2.998,11.145l-47.17,17.169c-4.505,1.64-9.781,1.159-11.325-3.081l-30.624-84.14     c-1.543-4.239,2.19-8,6.695-9.64l47.17-17.169c4.373-1.592,7.916,2.372,9.46,6.612c1.784,4.902,1.075,9.963-2.9,11.409     l-35.511,12.925L355.639,248.229z"/>
		</g>
	</g>
</g>















</svg>
