<svg height="435pt" viewBox="0 -4 435.55013 435" width="435pt" xmlns="http://www.w3.org/2000/svg"><path d="m247.332031 39.867188 4.742188-13.292969c5.441406-15.242188 22.207031-23.191407 37.449219-17.75l119.742187 42.734375c15.242187 5.4375 23.191406 22.203125 17.75 37.445312l-61.097656 171.199219c-5.4375 15.242187-22.203125 23.1875-37.445313 17.746094l-119.742187-42.730469c-15.242188-5.441406-23.191407-22.207031-17.75-37.449219l40.855469-114.488281" fill="#fff"/><path d="m338.289062 286.484375c-4.023437 0-8.105468-.675781-12.105468-2.101563l-119.746094-42.734374c-18.761719-6.695313-28.582031-27.410157-21.878906-46.171876l40.851562-114.488281c1.261719-3.546875 5.15625-5.402343 8.71875-4.136719 3.554688 1.265626 5.402344 5.175782 4.136719 8.722657l-40.855469 114.488281c-4.160156 11.671875 1.941406 24.558594 13.613282 28.726562l119.746093 42.734376c11.675781 4.164062 24.5625-1.941407 28.726563-13.617188l61.09375-171.195312c4.160156-11.675782-1.9375-24.5625-13.613282-28.726563l-119.746093-42.730469c-5.652344-2.019531-11.753907-1.710937-17.179688.855469-5.425781 2.574219-9.527343 7.105469-11.546875 12.757813l-4.746094 13.296874c-1.265624 3.542969-5.1875 5.386719-8.71875 4.132813-3.554687-1.269531-5.40625-5.171875-4.132812-8.726563l4.746094-13.292968c3.238281-9.085938 9.832031-16.367188 18.550781-20.503906 8.714844-4.128907 18.535156-4.621094 27.613281-1.378907l119.746094 42.730469c18.761719 6.695312 28.582031 27.410156 21.882812 46.171875l-61.09375 171.199219c-5.269531 14.761718-19.214843 23.988281-34.0625 23.988281zm0 0" fill="#54596e"/><path d="m269.929688 145.027344c4.5625 11.242187 16.703124 17.011718 28.136718 14.023437 5.828125 10.277344 18.429688 14.957031 29.671875 10.390625 11.144531-4.523437 16.917969-16.492187 14.109375-27.835937l-17.660156-44.402344-44.144531 18.300781c-10.085938 5.898438-14.640625 18.382813-10.113281 29.523438zm0 0" fill="#54596e"/><path d="m318.894531 177.996094c-9.171875 0-18.085937-4.144532-23.984375-11.476563-13.347656 1.25-26.183594-6.292969-31.308594-18.921875-5.6875-14-.101562-30.332031 12.992188-37.984375l.832031-.414062 50.535157-20.957031 20.511718 51.726562c3.648438 14.726562-4.164062 30.117188-18.171875 35.800781-3.710937 1.507813-7.578125 2.226563-11.40625 2.226563zm-17.484375-26.875 2.59375 4.5625c4.21875 7.429687 13.3125 10.628906 21.164063 7.433594 7.628906-3.09375 11.933593-11.40625 10.15625-19.457032l-14.921875-37.5-37.28125 15.457032c-7.011719 4.339843-9.964844 13.21875-6.863282 20.839843 3.183594 7.851563 11.777344 12.144531 20.078126 9.992188zm0 0" fill="#54596e"/><path d="m288.355469 188.882812c-.886719 0-1.785157-.175781-2.652344-.539062-3.472656-1.46875-5.101563-5.472656-3.632813-8.949219l10.621094-25.152343c1.464844-3.472657 5.472656-5.09375 8.9375-3.636719 3.472656 1.464843 5.101563 5.46875 3.632813 8.945312l-10.621094 25.15625c-1.097656 2.605469-3.625 4.175781-6.285156 4.175781zm0 0" fill="#54596e"/><path d="m94.644531 143.386719v-51.285157c0-16.183593 13.117188-29.300781 29.300781-29.300781h125.714844c16.183594 0 29.304688 13.117188 29.304688 29.300781v180.328126c0 16.183593-13.121094 29.304687-29.304688 29.304687h-125.714844c-16.183593 0-29.300781-13.121094-29.300781-29.304687v-80.773438" fill="#d8d8d8"/><path d="m249.65625 308.558594h-125.707031c-19.925781 0-36.132813-16.207032-36.132813-36.128906v-80.777344c0-3.769532 3.054688-6.824219 6.828125-6.824219 3.773438 0 6.824219 3.054687 6.824219 6.824219v80.777344c0 12.394531 10.085938 22.476562 22.480469 22.476562h125.707031c12.394531 0 22.480469-10.082031 22.480469-22.476562v-180.328126c0-12.394531-10.085938-22.476562-22.480469-22.476562h-125.707031c-12.394531 0-22.480469 10.082031-22.480469 22.476562v51.285157c0 3.769531-3.050781 6.824219-6.824219 6.824219-3.773437 0-6.828125-3.054688-6.828125-6.824219v-51.285157c0-19.921874 16.207032-36.128906 36.132813-36.128906h125.707031c19.925781 0 36.132812 16.207032 36.132812 36.128906v180.328126c0 19.921874-16.207031 36.128906-36.132812 36.128906zm0 0" fill="#54596e"/><path d="m214.765625 155.128906c-8.578125-8.578125-22.007813-9.167968-31.375-1.96875-9.371094-7.199218-22.796875-6.609375-31.378906 1.96875-8.503907 8.507813-9.164063 21.777344-2.167969 31.132813l33.546875 34.035156 33.546875-34.035156c6.996094-9.355469 6.332031-22.625-2.171875-31.132813zm0 0" fill="#ff927d"/><path d="m183.390625 227.125c-1.828125 0-3.582031-.734375-4.859375-2.03125l-33.546875-34.035156c-.222656-.222656-.421875-.457032-.605469-.703125-9.089844-12.148438-7.875-29.363281 2.8125-40.046875 9.636719-9.648438 24.464844-11.578125 36.199219-5.253906 11.734375-6.3125 26.566406-4.394532 36.207031 5.253906 10.6875 10.6875 11.894532 27.902344 2.808594 40.046875-.1875.246093-.390625.480469-.609375.703125l-33.542969 34.035156c-1.285156 1.296875-3.039062 2.03125-4.863281 2.03125zm-28.335937-45.296875 28.335937 28.746094 28.332031-28.746094c4.769532-6.722656 4.035156-16.046875-1.777344-21.867187-5.988281-5.996094-15.621093-6.605469-22.394531-1.386719-2.453125 1.886719-5.867187 1.886719-8.320312 0-6.78125-5.210938-16.398438-4.605469-22.386719 1.386719-5.820312 5.816406-6.554688 15.144531-1.789062 21.867187zm0 0" fill="#54596e"/><path d="m235.414062 369.589844-117.113281 49.480468c-14.910156 6.300782-32.101562-.679687-38.398437-15.585937l-70.746094-167.4375c-6.300781-14.910156.675781-32.101563 15.585938-38.398437l117.117187-49.484376c14.90625-6.300781 32.097656.679688 38.398437 15.589844l70.746094 167.4375c6.296875 14.90625-.683594 32.097656-15.589844 38.398438zm0 0" fill="#fff"/><path d="m106.949219 428.207031c-14.09375 0-27.511719-8.292969-33.332031-22.070312l-70.746094-167.433594c-3.761719-8.886719-3.828125-18.710937-.199219-27.652344 3.632813-8.941406 10.527344-15.933593 19.414063-19.691406l117.113281-49.484375c18.367187-7.746094 39.589843.867188 47.34375 19.222656l70.746093 167.433594c3.761719 8.886719 3.828126 18.710938.199219 27.65625-3.632812 8.9375-10.523437 15.933594-19.410156 19.6875v.003906l-117.113281 49.484375c-4.582032 1.929688-9.335938 2.84375-14.015625 2.84375zm46.28125-275.527343c-2.914063 0-5.875.570312-8.71875 1.773437l-117.109375 49.484375c-5.53125 2.335938-9.820313 6.683594-12.078125 12.25-2.257813 5.5625-2.214844 11.671875.121093 17.203125l70.746094 167.433594c4.824219 11.417969 18.046875 16.777343 29.460938 11.957031l117.105468-49.480469c5.53125-2.335937 9.820313-6.6875 12.078126-12.25 2.261718-5.566406 2.214843-11.675781-.117188-17.203125l-70.746094-167.4375c-3.625-8.570312-11.976562-13.730468-20.742187-13.730468zm82.183593 216.910156h.070313zm0 0" fill="#54596e"/><path d="m105.476562 241.550781c17.585938 15.449219 41.042969 22.441407 64.21875 19.144531-15.449218 17.589844-22.441406 41.042969-19.148437 64.21875-17.585937-15.449218-41.042969-22.441406-64.21875-19.144531 15.449219-17.585937 22.441406-41.042969 19.148437-64.21875zm0 0" fill="#ff927d"/><g fill="#54596e"><path d="m150.550781 331.742188c-1.621093 0-3.234375-.574219-4.507812-1.695313-16.113281-14.152344-37.558594-20.535156-58.753907-17.515625-2.8125.386719-5.605468-1-6.964843-3.515625-1.363281-2.515625-1.007813-5.605469.878906-7.753906 14.148437-16.105469 20.53125-37.523438 17.515625-58.753907-.402344-2.824218 1-5.605468 3.511719-6.964843 2.515625-1.347657 5.605469-1.011719 7.753906.875 16.113281 14.15625 37.519531 20.550781 58.753906 17.519531 2.800781-.375 5.597657 1 6.964844 3.511719 1.363281 2.515625 1.007813 5.609375-.878906 7.753906-14.148438 16.109375-20.53125 37.523437-17.515625 58.753906.402344 2.828125-1 5.605469-3.511719 6.96875-1.019531.546875-2.132813.816407-3.246094.816407zm-50.1875-33.558594c15.066407.46875 29.742188 4.839844 42.601563 12.699218.464844-15.066406 4.847656-29.738281 12.699218-42.601562-15.066406-.464844-29.742187-4.839844-42.601562-12.699219-.464844 15.066407-4.847656 29.738281-12.699219 42.601563zm0 0"/><path d="m53.683594 230.054688c0 5.652343-4.585938 10.238281-10.242188 10.238281-5.652344 0-10.238281-4.585938-10.238281-10.238281 0-5.65625 4.585937-10.242188 10.238281-10.242188 5.65625 0 10.242188 4.585938 10.242188 10.242188zm0 0"/><path d="m231.175781 339.28125c0 5.652344-4.582031 10.238281-10.238281 10.238281s-10.242188-4.585937-10.242188-10.238281c0-5.65625 4.585938-10.242188 10.242188-10.242188s10.238281 4.585938 10.238281 10.242188zm0 0"/><path d="m292.617188 45.734375c0 5.652344-4.585938 10.238281-10.242188 10.238281-5.652344 0-10.238281-4.585937-10.238281-10.238281 0-5.65625 4.585937-10.242187 10.238281-10.242187 5.65625 0 10.242188 4.585937 10.242188 10.242187zm0 0"/><path d="m340.402344 243.707031c0 5.65625-4.582032 10.238281-10.238282 10.238281s-10.242187-4.582031-10.242187-10.238281 4.585937-10.242187 10.242187-10.242187 10.238282 4.585937 10.238282 10.242187zm0 0"/><path d="m251.65625 271.011719c0 5.65625-4.585938 10.242187-10.238281 10.242187-5.65625 0-10.242188-4.585937-10.242188-10.242187 0-5.652344 4.585938-10.238281 10.242188-10.238281 5.652343 0 10.238281 4.585937 10.238281 10.238281zm0 0"/><path d="m135.601562 100.347656c0 5.65625-4.582031 10.238282-10.238281 10.238282s-10.238281-4.582032-10.238281-10.238282 4.582031-10.242187 10.238281-10.242187 10.238281 4.585937 10.238281 10.242187zm0 0"/></g><path d="m374.535156 356.347656c0 26.390625-21.394531 47.785156-47.785156 47.785156s-47.785156-21.394531-47.785156-47.785156c0-26.394531 21.394531-47.789062 47.785156-47.789062s47.785156 21.394531 47.785156 47.789062zm0 0" fill="#fff35f"/><path d="m326.75 410.960938c-30.113281 0-54.613281-24.5-54.613281-54.613282 0-30.113281 24.5-54.613281 54.613281-54.613281s54.613281 24.5 54.613281 54.613281c0 30.113282-24.5 54.613282-54.613281 54.613282zm0-95.574219c-22.585938 0-40.960938 18.375-40.960938 40.960937 0 22.585938 18.375 40.957032 40.960938 40.957032s40.960938-18.371094 40.960938-40.957032c0-22.585937-18.375-40.960937-40.960938-40.960937zm0 0" fill="#54596e"/><path d="m313.097656 342.691406c0 3.773438-3.058594 6.828125-6.828125 6.828125s-6.828125-3.054687-6.828125-6.828125c0-3.769531 3.058594-6.824218 6.828125-6.824218s6.828125 3.054687 6.828125 6.824218zm0 0" fill="#54596e"/><path d="m354.054688 342.691406c0 3.773438-3.054688 6.828125-6.824219 6.828125s-6.828125-3.054687-6.828125-6.828125c0-3.769531 3.058594-6.824218 6.828125-6.824218s6.824219 3.054687 6.824219 6.824218zm0 0" fill="#54596e"/><path d="m306.25 383.652344c-1.605469 0-3.214844-.558594-4.515625-1.703125-2.824219-2.492188-3.097656-6.804688-.605469-9.636719 6.480469-7.359375 15.820313-11.578125 25.621094-11.578125 9.804688 0 19.148438 4.222656 25.628906 11.582031 2.484375 2.832032 2.210938 7.148438-.621094 9.636719-2.8125 2.484375-7.132812 2.21875-9.632812-.617187-3.886719-4.414063-9.488281-6.949219-15.375-6.949219-5.878906 0-11.484375 2.535156-15.378906 6.953125-1.347656 1.53125-3.234375 2.3125-5.121094 2.3125zm0 0" fill="#54596e"/></svg>