<svg height="580" viewBox="0 -4 435.55 435" width="580" xmlns="http://www.w3.org/2000/svg"><path d="M247.332 39.867l4.742-13.293c5.442-15.242 22.207-23.191 37.45-17.75L409.265 51.56c15.242 5.437 23.191 22.203 17.75 37.445l-61.098 171.2c-5.438 15.241-22.203 23.187-37.445 17.745L208.73 235.22c-15.242-5.442-23.19-22.207-17.75-37.45l40.856-114.488" fill="#fff"/><path d="M338.29 286.484a35.97 35.97 0 0 1-12.106-2.101l-119.746-42.735c-18.762-6.695-28.583-27.41-21.88-46.171L225.41 80.988a6.825 6.825 0 0 1 12.855 4.586L197.41 200.062c-4.16 11.672 1.942 24.56 13.613 28.727l119.747 42.734c11.675 4.164 24.562-1.941 28.726-13.617L420.59 86.711c4.16-11.676-1.938-24.563-13.613-28.727L287.23 15.254c-5.652-2.02-11.753-1.711-17.18.855a22.359 22.359 0 0 0-11.546 12.758l-4.746 13.297c-1.266 3.543-5.188 5.387-8.719 4.133a6.82 6.82 0 0 1-4.133-8.727l4.746-13.293c3.239-9.086 9.832-16.367 18.551-20.504 8.715-4.128 18.535-4.62 27.613-1.378l119.747 42.73c18.761 6.695 28.582 27.41 21.882 46.172l-61.093 171.2c-5.27 14.76-19.215 23.987-34.063 23.987zm0 0" fill="#54596e"/><path d="M269.93 145.027c4.562 11.243 16.703 17.012 28.136 14.024 5.829 10.277 18.43 14.957 29.672 10.39 11.145-4.523 16.918-16.492 14.11-27.836l-17.66-44.402-44.145 18.3c-10.086 5.9-14.64 18.384-10.113 29.524zm0 0" fill="#54596e"/><path d="M318.895 177.996c-9.172 0-18.086-4.144-23.985-11.476-13.348 1.25-26.183-6.293-31.308-18.922-5.688-14-.102-30.332 12.992-37.985l.832-.414 50.535-20.957 20.512 51.727c3.648 14.726-4.164 30.117-18.172 35.8a30.245 30.245 0 0 1-11.406 2.227zm-17.485-26.875l2.594 4.563c4.219 7.43 13.312 10.629 21.164 7.433 7.629-3.094 11.934-11.406 10.156-19.457l-14.922-37.5-37.28 15.457c-7.013 4.34-9.966 13.219-6.864 20.84 3.183 7.852 11.777 12.145 20.078 9.992zm0 0" fill="#54596e"/><path d="M288.355 188.883a6.83 6.83 0 0 1-6.285-9.488l10.621-25.153c1.465-3.472 5.473-5.094 8.938-3.637a6.824 6.824 0 0 1 3.633 8.946l-10.621 25.156a6.822 6.822 0 0 1-6.286 4.176zm0 0" fill="#54596e"/><path d="M94.645 143.387V92.102c0-16.184 13.117-29.301 29.3-29.301H249.66c16.184 0 29.305 13.117 29.305 29.3V272.43c0 16.183-13.121 29.304-29.305 29.304H123.945c-16.183 0-29.3-13.12-29.3-29.304v-80.774" fill="#d8d8d8"/><path d="M249.656 308.559H123.95c-19.926 0-36.133-16.207-36.133-36.13v-80.777a6.824 6.824 0 0 1 6.829-6.824 6.82 6.82 0 0 1 6.824 6.824v80.778c0 12.394 10.086 22.476 22.48 22.476h125.707c12.395 0 22.48-10.082 22.48-22.476V92.102c0-12.395-10.085-22.477-22.48-22.477H123.95c-12.394 0-22.48 10.082-22.48 22.477v51.285a6.82 6.82 0 0 1-6.824 6.824 6.824 6.824 0 0 1-6.829-6.824V92.102c0-19.922 16.207-36.13 36.133-36.13h125.707c19.926 0 36.133 16.208 36.133 36.13V272.43c0 19.922-16.207 36.129-36.133 36.129zm0 0" fill="#54596e"/><path d="M214.766 155.129c-8.578-8.578-22.008-9.168-31.375-1.969-9.371-7.2-22.797-6.61-31.38 1.969-8.503 8.508-9.163 21.777-2.167 31.133l33.547 34.035 33.547-34.035c6.996-9.356 6.332-22.625-2.172-31.133zm0 0" fill="#ff927d"/><path d="M183.39 227.125a6.827 6.827 0 0 1-4.859-2.031l-33.547-34.035a6.401 6.401 0 0 1-.605-.704c-9.09-12.148-7.875-29.363 2.812-40.046 9.637-9.649 24.465-11.579 36.2-5.254 11.734-6.313 26.566-4.395 36.207 5.254 10.687 10.687 11.894 27.902 2.808 40.046-.187.247-.39.48-.61.704l-33.542 34.035a6.856 6.856 0 0 1-4.863 2.031zm-28.335-45.297l28.336 28.746 28.332-28.746c4.77-6.723 4.035-16.047-1.778-21.867-5.988-5.996-15.62-6.606-22.394-1.387a6.823 6.823 0 0 1-8.32 0c-6.782-5.21-16.399-4.605-22.387 1.387-5.82 5.816-6.555 15.144-1.79 21.867zm0 0" fill="#54596e"/><path d="M235.414 369.59l-117.113 49.48c-14.91 6.301-32.102-.68-38.399-15.586L9.156 236.047c-6.3-14.91.676-32.102 15.586-38.399l117.117-49.484c14.907-6.3 32.098.68 38.399 15.59l70.746 167.437c6.297 14.907-.684 32.098-15.59 38.399zm0 0" fill="#fff"/><path d="M106.95 428.207c-14.095 0-27.513-8.293-33.333-22.07L2.871 238.703c-3.762-8.887-3.828-18.71-.2-27.652 3.634-8.942 10.528-15.934 19.415-19.692l117.113-49.484c18.367-7.746 39.59.867 47.344 19.223l70.746 167.433c3.762 8.887 3.828 18.711.2 27.656-3.634 8.938-10.524 15.934-19.41 19.688v.004l-117.114 49.484a36.033 36.033 0 0 1-14.016 2.844zm46.28-275.527c-2.914 0-5.875.57-8.718 1.773l-117.11 49.484a22.312 22.312 0 0 0-12.078 12.25 22.337 22.337 0 0 0 .121 17.204l70.746 167.433c4.825 11.418 18.047 16.778 29.461 11.957l117.106-49.48a22.324 22.324 0 0 0 12.078-12.25c2.262-5.567 2.215-11.676-.117-17.203L173.973 166.41c-3.625-8.57-11.977-13.73-20.743-13.73zm82.184 216.91h.07zm0 0" fill="#54596e"/><path d="M105.477 241.55a80.187 80.187 0 0 0 64.218 19.145 80.208 80.208 0 0 0-19.148 64.22 80.187 80.187 0 0 0-64.219-19.145 80.204 80.204 0 0 0 19.149-64.22zm0 0" fill="#ff927d"/><path d="M150.55 331.742a6.817 6.817 0 0 1-4.507-1.695 73.323 73.323 0 0 0-58.754-17.516c-2.812.387-5.605-1-6.965-3.515a6.82 6.82 0 0 1 .88-7.754 73.305 73.305 0 0 0 17.515-58.754 6.83 6.83 0 0 1 3.511-6.965 6.845 6.845 0 0 1 7.754.875c16.114 14.156 37.52 20.55 58.754 17.52 2.801-.375 5.598 1 6.965 3.511a6.819 6.819 0 0 1-.879 7.754 73.31 73.31 0 0 0-17.515 58.754 6.835 6.835 0 0 1-3.512 6.969 6.854 6.854 0 0 1-3.246.816zm-50.187-33.558a86.849 86.849 0 0 1 42.602 12.699 86.902 86.902 0 0 1 12.7-42.602 86.808 86.808 0 0 1-42.602-12.699 86.902 86.902 0 0 1-12.7 42.602zm-46.68-68.13c0 5.653-4.585 10.239-10.242 10.239-5.652 0-10.238-4.586-10.238-10.238 0-5.657 4.586-10.243 10.238-10.243 5.657 0 10.243 4.586 10.243 10.243zm177.493 109.227c0 5.653-4.582 10.239-10.238 10.239s-10.243-4.586-10.243-10.239c0-5.656 4.586-10.242 10.243-10.242s10.238 4.586 10.238 10.242zm61.441-293.547c0 5.653-4.586 10.239-10.242 10.239-5.652 0-10.238-4.586-10.238-10.239 0-5.656 4.586-10.242 10.238-10.242 5.656 0 10.242 4.586 10.242 10.242zm47.785 197.973c0 5.656-4.582 10.238-10.238 10.238s-10.242-4.582-10.242-10.238 4.586-10.242 10.242-10.242 10.238 4.586 10.238 10.242zm-88.746 27.305c0 5.656-4.586 10.242-10.238 10.242-5.656 0-10.242-4.586-10.242-10.242 0-5.653 4.586-10.239 10.242-10.239 5.652 0 10.238 4.586 10.238 10.239zM135.602 100.348c0 5.656-4.582 10.238-10.239 10.238s-10.238-4.582-10.238-10.238 4.582-10.243 10.238-10.243 10.239 4.586 10.239 10.243zm0 0" fill="#54596e"/><path d="M374.535 356.348c0 26.39-21.394 47.785-47.785 47.785s-47.785-21.395-47.785-47.785c0-26.395 21.394-47.79 47.785-47.79s47.785 21.395 47.785 47.79zm0 0" fill="#fff35f"/><path d="M326.75 410.96c-30.113 0-54.613-24.5-54.613-54.612 0-30.114 24.5-54.614 54.613-54.614s54.613 24.5 54.613 54.614c0 30.113-24.5 54.613-54.613 54.613zm0-95.573c-22.586 0-40.96 18.375-40.96 40.96 0 22.587 18.374 40.958 40.96 40.958s40.96-18.371 40.96-40.957c0-22.586-18.374-40.961-40.96-40.961zm0 0" fill="#54596e"/><path d="M313.098 342.691a6.828 6.828 0 1 1-13.656 0c0-3.77 3.058-6.824 6.828-6.824s6.828 3.055 6.828 6.824zm40.957 0a6.827 6.827 0 1 1-13.65.002 6.827 6.827 0 0 1 13.65-.002zm-47.805 40.961a6.807 6.807 0 0 1-4.516-1.703 6.833 6.833 0 0 1-.605-9.636 34.15 34.15 0 0 1 25.621-11.579 34.164 34.164 0 0 1 25.629 11.582c2.484 2.832 2.21 7.149-.621 9.637-2.813 2.485-7.133 2.219-9.633-.617a20.49 20.49 0 0 0-15.375-6.95 20.514 20.514 0 0 0-15.379 6.954 6.808 6.808 0 0 1-5.121 2.312zm0 0" fill="#54596e"/></svg>