<svg xmlns="http://www.w3.org/2000/svg" viewBox="0 0 512.001 512.001"><path d="M260.343 251.275l-.871-.871c-66.309-66.309-271.213 6.565-248.466 69.141 9.933 27.325 30.54 45.633 50.604 57.588a205.065 205.065 0 0 1 40.422 31.582 204.932 204.932 0 0 1 31.582 40.422c11.955 20.064 30.263 40.67 57.588 50.604 62.576 22.748 135.449-182.157 69.141-248.466zm-41.96-194.732c-13.975 36.862-12.173 122.257 24.69 136.233 36.863 13.975 94.824-48.762 108.8-85.623 13.975-36.863-4.578-78.074-41.44-92.049-36.862-13.978-78.074 4.576-92.05 41.439z" fill="#ff6347"/><path d="M25.19 110.245c6.683 33.091 46.938 94.16 80.029 87.477s46.487-78.589 39.803-111.68c-6.683-33.091-38.927-54.498-72.018-47.814S18.507 77.155 25.19 110.245z" fill="#ea2400"/><path d="M25.19 110.245c6.683 33.091 46.938 94.16 80.029 87.477s46.487-78.589 39.803-111.68c-6.683-33.091-38.927-54.498-72.018-47.814S18.507 77.155 25.19 110.245zm431.497 184.6c-36.863 13.975-122.258 12.173-136.233-24.689s48.761-94.824 85.623-108.8c36.863-13.975 78.074 4.578 92.049 41.44 13.976 36.863-4.577 78.074-41.439 92.049zm-53.703 193.194c-33.091-6.683-94.16-46.938-87.477-80.029 6.683-33.091 78.589-46.487 111.68-39.803 33.091 6.684 54.498 38.927 47.814 72.018-6.684 33.09-38.927 54.498-72.017 47.814z" fill="#ff6347"/><path d="M260.343 251.275l-.871-.871c-3.028-3.028-6.348-5.762-9.918-8.224 51.447 74.631-17.646 260.256-77.365 238.547-10.349-3.762-19.402-9.057-27.31-15.272 11.358 14.196 26.454 27.063 46.323 34.286 62.576 22.748 135.449-182.157 69.141-248.466zm91.531-144.124c11.962-31.551.078-66.273-26.705-84.392 12.588 18.586 16.254 42.794 7.691 65.378-13.975 36.863-71.938 99.599-108.8 85.623-.354-.134-.699-.287-1.045-.434 4.999 9.273 11.604 16.243 20.059 19.448 36.861 13.976 94.824-48.76 108.8-85.623zM145.022 86.042c-3.436-17.015-13.64-30.926-27.232-39.532a60.935 60.935 0 0 1 8.219 20.518c6.683 33.091-6.713 104.996-39.803 111.68-10.093 2.039-20.853-2.234-31.124-10.087 15.076 18.709 33.511 32.458 50.138 29.1 33.089-6.683 46.486-78.587 39.802-111.679zm353.105 116.754c-5.413-14.277-14.922-25.791-26.671-33.749a71.52 71.52 0 0 1 7.657 14.736c13.975 36.861-4.578 78.074-41.44 92.049-28.408 10.77-85.631 12.165-116.785-4.63 15.188 35.844 99.29 37.484 135.799 23.643 36.862-13.975 55.415-55.186 41.44-92.049zm-23.126 237.429c5.168-25.583-6.465-50.648-27.296-63.798 8.131 12.842 11.529 28.709 8.281 44.786-6.683 33.091-38.927 54.498-72.018 47.814-16.464-3.325-39.851-14.962-58.376-29.891 17.891 23.4 54.394 44.259 77.39 48.903 33.092 6.684 65.335-14.724 72.019-47.814z" fill="#e82300"/><path d="M266.172 243.777c-22.549-22.549-61.342-32.451-109.223-27.883-41.225 3.933-84.357 18.075-115.38 37.829C7.921 275.15-5.999 299.64 2.377 322.68c9.2 25.307 27.565 46.303 54.587 62.403a195.546 195.546 0 0 1 20.438 14.018 9.306 9.306 0 0 0 13.067-1.584 9.307 9.307 0 0 0-1.584-13.067 214.101 214.101 0 0 0-22.392-15.358c-23.24-13.848-38.924-31.602-46.62-52.772-7.116-19.576 19.795-39.315 31.696-46.894 59.198-37.698 162.253-51.673 201.44-12.486l.871.871c39.187 39.186 25.212 142.242-12.486 201.44-7.579 11.902-27.32 38.816-46.894 31.695-21.17-7.696-38.925-23.38-52.772-46.62a214.335 214.335 0 0 0-29.321-38.493c-3.557-3.713-9.448-3.839-13.16-.283s-3.839 9.448-.283 13.16a195.722 195.722 0 0 1 26.773 35.145c16.1 27.021 37.096 45.387 62.403 54.587 4.376 1.591 8.803 2.378 13.253 2.378 18.978 0 38.346-14.312 55.703-41.569 19.755-31.022 33.897-74.155 37.829-115.38 4.568-47.884-5.334-86.674-27.883-109.223l-.87-.871zm-26.511-42.299c4.543 1.723 9.397 2.574 14.507 2.574 17.169 0 37.214-9.612 57.962-28.07 21.201-18.861 40.624-45.195 48.334-65.531C376.235 68.85 355.221 22.172 313.619 6.4c-37.723-14.303-80.56 1.672-99.637 37.157-2.434 4.527-.737 10.172 3.791 12.605 4.527 2.434 10.172.738 12.605-3.791 14.67-27.288 47.618-39.568 76.642-28.566 32.004 12.134 48.17 48.042 36.037 80.047-6.741 17.779-24.142 41.177-43.301 58.221-21.177 18.84-40.678 26.859-53.496 21.999-23.471-8.898-31.576-62.678-24.172-105.38.879-5.065-2.516-9.882-7.58-10.761-5.063-.879-9.882 2.516-10.761 7.58-7.592 43.775-1.466 111.796 35.914 125.967zM45.537 171.692c10.319 13.386 31.115 35.841 54.437 35.844h.004a35.32 35.32 0 0 0 6.971-.691c39.885-8.056 54.6-85.436 47.084-122.646-6.612-32.739-35.62-56.501-68.975-56.501-4.676 0-9.39.473-14.009 1.406-38.068 7.69-62.784 44.916-55.095 82.985 3.531 17.479 15.142 40.874 29.583 59.603zm29.198-124.34a52.224 52.224 0 0 1 10.323-1.038c24.529 0 45.863 17.483 50.728 41.571 6.389 31.633-7.838 95.728-32.523 100.713-1.06.213-2.164.323-3.285.323h-.002c-25.047-.002-59.803-50.949-65.775-80.518-5.656-28.007 12.527-55.395 40.534-61.051zm431.983 152.144c-11.815-31.165-42.14-52.103-75.46-52.103-9.767 0-19.386 1.77-28.592 5.26-20.335 7.708-46.668 27.133-65.531 48.334-23.952 26.923-33.007 52.66-25.496 72.47 13.634 35.963 73.42 38.757 91.42 38.757 21.584 0 42.292-3.158 56.816-8.664 20.153-7.641 36.124-22.671 44.972-42.325 8.846-19.654 9.51-41.576 1.871-61.729zm-18.847 54.086c-6.806 15.118-19.093 26.682-34.597 32.56-12.314 4.668-31.086 7.455-50.216 7.455-38.802 0-67.854-10.497-74.013-26.741-4.86-12.82 3.158-32.319 21.999-53.496 17.044-19.159 40.442-36.561 58.221-43.301 7.09-2.688 14.489-4.051 21.993-4.051 25.634 0 48.964 16.109 58.054 40.087 5.876 15.504 5.365 32.369-1.441 47.487zm-58.954 105.502c-6.092-1.231-13.207-1.855-21.145-1.855-35.422 0-94.299 13.287-101.501 48.939-8.056 39.885 57.547 83.479 94.759 90.995a70.918 70.918 0 0 0 14.009 1.406c33.354 0 62.362-23.762 68.975-56.501 3.724-18.441.046-37.229-10.361-52.902-10.408-15.674-26.295-26.357-44.736-30.082zm36.847 79.298c-4.865 24.087-26.2 41.571-50.728 41.571-3.441 0-6.914-.349-10.323-1.038-31.633-6.389-85.181-44.378-80.196-69.062 4.048-20.042 47.125-34.008 83.254-34.008 6.609 0 12.646.514 17.459 1.487 13.567 2.74 25.255 10.6 32.911 22.132 7.657 11.53 10.364 25.351 7.623 38.918z"/></svg>