<svg xmlns="http://www.w3.org/2000/svg" viewBox="0 0 512.001 512.001" width="512" height="512"><path d="M256.001 435.53c98.881 0 179.529-80.648 179.529-179.529s-80.648-179.53-179.529-179.53C157.119 76.471 76.472 157.12 76.472 256s80.647 179.53 179.529 179.53z" fill-rule="evenodd" clip-rule="evenodd" fill="#DB5C65"/><path d="M136.885 403.423c33.561 27.153 75.864 42.106 119.116 42.106 104.506 0 189.528-85.022 189.528-189.529S360.507 66.471 256.001 66.471c-43.252 0-85.554 14.953-119.116 42.105-33.067 26.752-56.415 64.207-65.742 105.464-1.218 5.387 2.162 10.741 7.549 11.959 5.387 1.216 10.741-2.162 11.959-7.549 17.567-77.708 85.562-131.979 165.35-131.979 93.478 0 169.528 76.051 169.528 169.529s-76.05 169.53-169.528 169.53c-79.788 0-147.782-54.271-165.35-131.979-1.218-5.387-6.575-8.768-11.959-7.549-5.387 1.218-8.767 6.572-7.549 11.959 9.328 41.256 32.675 78.71 65.742 105.462z" fill-rule="evenodd" clip-rule="evenodd"/><path d="M491.599 155.708c-2.165-5.08-8.039-7.442-13.12-5.278-5.081 2.165-7.444 8.039-5.279 13.12 12.476 29.273 18.801 60.378 18.801 92.45 0 130.131-105.869 236-236 236S20 386.131 20 256 125.87 20 256.001 20c32.078 0 63.183 6.325 92.45 18.801 5.081 2.164 10.954-.196 13.12-5.278 2.165-5.08-.198-10.954-5.278-13.12C324.533 6.865 290.79.001 256.001.001c-68.38 0-132.668 26.629-181.02 74.98C26.629 123.334 0 187.621 0 256s26.629 132.667 74.981 181.02c48.353 48.352 112.64 74.98 181.02 74.98 68.38 0 132.667-26.629 181.019-74.98 48.352-48.352 74.981-112.64 74.981-181.02 0-34.782-6.864-68.525-20.402-100.292z" fill-rule="evenodd" clip-rule="evenodd"/><path d="M376.34 86.36h44.228v46.428c0 5.523 4.477 10 10 10s10-4.477 10-10V86.36h44.228c5.523 0 10-4.478 10-10s-4.477-10-10-10h-44.228V19.932c0-5.522-4.477-10-10-10s-10 4.478-10 10V66.36H376.34c-5.523 0-10 4.478-10 10s4.477 10 10 10zM240.533 310.22c0 33.313 27.103 60.416 60.416 60.416 33.314 0 60.417-27.103 60.417-60.416 0-21.041-10.818-39.595-27.178-50.416 16.36-10.821 27.178-29.375 27.178-50.416 0-33.314-27.103-60.417-60.417-60.417-33.313 0-60.416 27.102-60.416 60.417 0 21.041 10.818 39.595 27.178 50.416-16.359 10.821-27.178 29.375-27.178 50.416zm20-100.832c0-22.286 18.13-40.417 40.416-40.417 22.286 0 40.417 18.131 40.417 40.417 0 22.285-18.131 40.416-40.417 40.416-22.285 0-40.416-18.131-40.416-40.416zm40.416 60.416c22.286 0 40.417 18.131 40.417 40.416 0 22.285-18.131 40.416-40.417 40.416s-40.416-18.131-40.416-40.416c0-22.285 18.131-40.416 40.416-40.416zM196.532 162.038c-.007-.085-.006-.171-.015-.255-.032-.309-.08-.618-.141-.925-.015-.073-.034-.145-.051-.217a9.724 9.724 0 0 0-.201-.781c-.052-.168-.119-.33-.18-.495-.052-.142-.096-.285-.155-.425a10.08 10.08 0 0 0-.409-.851l-.016-.032c-.158-.291-.33-.571-.515-.844-.044-.064-.096-.125-.142-.189a10.63 10.63 0 0 0-.457-.604l-.028-.036c-.07-.084-.148-.156-.221-.237-.137-.152-.273-.306-.419-.449-.113-.112-.233-.214-.351-.319-.124-.11-.246-.224-.375-.328-.133-.108-.273-.207-.411-.308-.124-.091-.247-.184-.376-.269-.14-.092-.284-.175-.427-.26-.139-.082-.276-.165-.419-.24-.135-.071-.273-.134-.411-.198-.16-.074-.319-.15-.484-.217-.126-.051-.255-.095-.383-.141-.18-.064-.359-.129-.543-.183-.124-.037-.251-.066-.376-.097-.189-.048-.376-.096-.568-.133-.14-.027-.282-.044-.423-.064-.178-.026-.355-.056-.537-.072-.181-.017-.363-.02-.544-.027-.128-.005-.253-.02-.382-.02-.018 0-.035.003-.053.003-.224.001-.446.018-.67.033-.107.008-.216.008-.322.019a10.158 10.158 0 0 0-1.378.253c-.18.045-.36.084-.538.139-.185.058-.363.13-.544.197-.126.048-.253.086-.378.139a9.926 9.926 0 0 0-.792.38c-.037.02-.075.037-.112.057a9.773 9.773 0 0 0-.821.501c-.074.051-.144.11-.217.163-.196.141-.39.282-.575.436l-.039.03-39.682 33.394c-4.226 3.557-4.768 9.864-1.212 14.09a9.977 9.977 0 0 0 7.656 3.561c2.273 0 4.559-.77 6.434-2.349l23.243-19.56v172.478c0 5.522 4.477 10 10 10s10-4.478 10-10V162.823l-.002-.047a10.725 10.725 0 0 0-.038-.738zM86.472 256c0-5.508-4.492-10-10-10s-10 4.492-10 10 4.492 10 10 10c5.507 0 10-4.492 10-10z" fill-rule="evenodd" clip-rule="evenodd"/></svg>