<svg xmlns="http://www.w3.org/2000/svg" viewBox="0 0 512.001 512.001" width="512" height="512"><circle cx="274.777" cy="244.063" r="229.723" fill="#FC7176"/><circle cx="274.777" cy="244.063" r="169.477" fill="#FAB3CE"/><path d="M247.225 156.325c-41.564 0-84.912 19.509-118.928 53.526-46.605 46.604-64.33 109.539-46.955 158.18 21.391 33.309 51.157 60.718 86.315 79.285a106.697 106.697 0 0 0 8.148-8.73c.926-1.11 1.84-2.244 2.741-3.4.89.019 1.781.028 2.674.028h.003c41.561 0 84.907-19.508 118.917-53.519 28.053-28.053 46.482-62.86 51.895-98.01 5.854-38.023-4.476-73.519-28.342-97.386-19.33-19.329-46.486-29.974-76.468-29.974z" fill="#E6676C"/><path d="M247.225 156.325c-41.564 0-84.912 19.509-118.928 53.526a198.286 198.286 0 0 0-22.847 27.34c-.091 2.281-.15 4.569-.15 6.872 0 88.529 67.883 161.191 154.435 168.806 14.35-8.304 28-18.769 40.405-31.174 28.053-28.053 46.482-62.86 51.895-98.01 5.854-38.023-4.476-73.519-28.342-97.386-19.33-19.329-46.486-29.974-76.468-29.974z" fill="#E381A5"/><path d="M149.51 231.064c-44.076 44.076-56.915 104.29-32.551 141.842-1.607 9.268-4.593 18.304-11.329 24.763-6.099 5.847-14.524 8.713-22.448 11.097-12.778 3.844-25.917 6.74-37.856 12.905-24.529 12.507-34.904 36.949-37.757 63.158-.591 5.426 2.734 10.682 8.147 12.327 6.121 1.861 12.591-1.593 14.451-7.713 2.592-8.526 5.526-17.071 11.06-24.193 7.877-10.079 19.699-13.043 31.885-14.344 30.084-3.213 59.033-6.81 79.655-31.535 3.988-4.782 7.682-10.123 10.968-15.791 35.776 6.941 80.487-8.392 115.194-43.098 48.745-48.745 59.29-117.232 23.552-152.97-35.739-35.738-104.226-25.193-152.971 23.552z" fill="#F5F5F5"/><g><path d="M167.368 346.293c2.853 2.853 7.701 2.905 10.606 0a7.5 7.5 0 0 0 0-10.606l-7.851-7.851a7.5 7.5 0 0 0-10.606 10.607l7.851 7.85zm86.756-86.756c2.896 2.896 7.714 2.893 10.606 0a7.5 7.5 0 0 0 0-10.606l-7.851-7.851a7.5 7.5 0 0 0-10.606 10.607c.001-.001 7.847 7.845 7.851 7.85zm-49.83 55.718c7.878.528 15.689-2.588 21.25-8.15 5.703-5.703 8.673-13.448 8.148-21.249a7.498 7.498 0 0 0-7.985-6.98 7.499 7.499 0 0 0-6.98 7.986c.234 3.482-1.147 6.995-3.79 9.637-2.643 2.643-6.152 4.024-9.638 3.79a7.5 7.5 0 1 0-1.005 14.966z"/><path d="M13.533 504.341c9.985 3.036 20.776-2.731 23.809-12.708 2.313-7.607 4.975-15.554 9.793-21.756 5.236-6.7 12.993-10.033 26.772-11.505 22.101-2.361 46.455-4.977 66.994-18.455 39.524 27.086 85.692 41.378 133.876 41.378 63.365 0 122.937-24.676 167.742-69.481S512 307.437 512 244.072 487.325 121.136 442.52 76.33 338.142 6.849 274.778 6.849c-37.833 0-73.996 8.646-107.481 25.697-31.93 16.258-60.254 40.006-81.912 68.676a7.5 7.5 0 1 0 11.969 9.041c20.295-26.866 46.834-49.118 76.749-64.351 31.358-15.967 65.23-24.063 100.675-24.063 59.358 0 115.163 23.115 157.135 65.088 41.973 41.972 65.088 97.777 65.088 157.135s-23.115 115.163-65.088 157.136c-41.972 41.973-97.777 65.088-157.135 65.088-43.624 0-85.482-12.499-121.657-36.237 4.557-4.503 8.651-9.686 12.252-14.981a124.922 124.922 0 0 0 2.142-3.263c4.58.63 9.236.939 13.952.939 9.549 0 19.322-1.282 29.094-3.743 20.476 7.982 42.065 12.039 64.217 12.039 29.684 0 59.057-7.5 84.943-21.688a7.5 7.5 0 0 0-7.21-13.154c-23.682 12.98-50.562 19.842-77.733 19.842-13.905 0-27.566-1.742-40.819-5.189 13.449-6.016 26.486-14.207 38.589-24.358 28.836-24.185 51.429-58.416 57.251-96.233 5.821-37.811-8.594-77.591-45.147-93.917-44.016-19.66-96.126.678-130.422 30.132-15.005 12.886-27.99 28.33-37.826 45.502-.052.091-1.525 2.656-2.154 3.825a163.564 163.564 0 0 1-1.449-21.739c0-89.314 72.663-161.978 161.978-161.978s161.978 72.663 161.978 161.978c0 49.029-21.867 94.894-59.994 125.834a7.5 7.5 0 0 0 9.452 11.648c41.653-33.802 65.542-83.912 65.542-137.482 0-97.586-79.392-176.978-176.978-176.978S97.8 146.486 97.8 244.072c0 15.565 2.048 30.991 6.042 45.902-1.409 4.259-2.627 8.538-3.59 12.823-1.871 8.329-2.852 16.524-2.96 24.455-.239 17.448 3.743 33.618 11.751 47.127-.904 4.273-2.187 8.57-4.375 12.376-.036.063-.07.127-.106.189-33.599-39.987-52.008-90.386-52.008-142.872 0-38.222 9.876-75.927 28.561-109.038 2.036-3.607.762-8.182-2.846-10.218s-8.183-.762-10.218 2.846c-19.951 35.356-30.497 75.61-30.497 116.41 0 56.214 19.792 110.174 55.888 152.929-16.328 8.114-35.146 9.647-51.523 17.997-23.752 12.111-38.208 35.98-41.806 69.028-.992 9.106 4.652 17.65 13.42 20.315zm1.492-18.691c3.067-28.173 14.408-47.447 33.742-57.306 10.48-5.344 21.965-8.152 33.204-11.398 10.196-2.944 21.001-6.342 28.85-13.855 9.157-8.779 12.107-20.695 13.529-28.895a7.584 7.584 0 0 0-1.098-5.364c-7.396-11.4-11.112-25.495-10.968-40.952.274-29.44 13.636-57.676 32.131-80.056 24.947-30.188 62.665-53.991 102.812-53.991 38.404 0 68.566 29.506 68.986 67.97l.005.712c.125 40.609-24.159 78.832-54.92 103.78-26.254 21.292-61.834 36.584-96.134 29.93-3.06-.594-6.349.895-7.917 3.601-5.258 9.07-11.677 17.69-19.962 24.214-18.325 14.431-41.976 16.96-64.97 19.416-11.972 1.279-26.998 4.388-37.01 17.2-6.401 8.238-9.593 17.665-12.313 26.614-.635 2.089-2.956 3.37-5.094 2.719a4.078 4.078 0 0 1-2.873-4.339z"/></g></svg>