<svg xmlns="http://www.w3.org/2000/svg" id="Layer_1" viewBox="0 0 256 256" width="512" height="512"><style>.st0{fill:#3a312a}.st1{fill:#d7e057}.st2{fill:#f16c7a}.st3{fill:#fce8cb}.st4{fill:#87796f}.st5{fill:#8ac6dd}.st7{fill:#6ca8bf}</style><path class="st1" d="M47.47 25.886c-.974 11.564-13.024 13.39-13.024 13.39 10.346.486 12.924 14.058 12.924 14.058.221-9.677 13.321-14.202 13.321-14.202-9.813-.587-13.221-13.246-13.221-13.246z"/><path class="st0" d="M60.781 37.635c-8.605-.515-11.832-12.025-11.864-12.141a1.5 1.5 0 1 0-2.942.265c-.86 10.215-11.313 11.964-11.754 12.033a1.5 1.5 0 0 0 .154 2.982c9.028.425 11.499 12.718 11.523 12.842a1.5 1.5 0 0 0 2.973-.247c.194-8.509 12.191-12.777 12.313-12.819a1.502 1.502 0 0 0-.403-2.915zM47.215 47.98c-1.357-3.13-3.709-6.907-7.587-8.876 2.931-1.405 6.409-3.913 8.202-8.273 1.551 3.071 4.199 6.88 8.334 8.722-3.007 1.641-6.922 4.406-8.949 8.427z"/><path class="st1" d="M25.771 42.866c-.689 8.179-9.212 9.471-9.212 9.471 7.318.344 9.142 9.944 9.142 9.944.156-6.845 9.422-10.046 9.422-10.046-6.941-.414-9.352-9.369-9.352-9.369z"/><path class="st0" d="M35.213 50.738c-5.767-.345-7.973-8.186-7.994-8.265a1.5 1.5 0 0 0-2.942.266c-.579 6.871-7.646 8.067-7.942 8.114a1.5 1.5 0 0 0 .154 2.982c6.036.284 7.724 8.644 7.739 8.726a1.5 1.5 0 0 0 2.973-.246c.13-5.709 8.331-8.634 8.413-8.662a1.5 1.5 0 0 0-.401-2.915zm-9.585 6.795c-.924-1.885-2.34-3.947-4.447-5.279 1.855-1.042 3.697-2.63 4.871-4.917 1.057 1.874 2.654 3.954 4.941 5.224-1.85 1.101-3.989 2.74-5.365 4.972z"/><path class="st1" d="M25.771 16.209c-.689 8.179-9.212 9.47-9.212 9.47 7.318.344 9.142 9.944 9.142 9.944.156-6.844 9.422-10.045 9.422-10.045-6.941-.415-9.352-9.369-9.352-9.369z"/><path class="st0" d="M35.212 24.081c-5.766-.345-7.972-8.185-7.994-8.264a1.5 1.5 0 0 0-2.942.266c-.579 6.871-7.646 8.066-7.942 8.113a1.5 1.5 0 0 0 .154 2.982c6.036.284 7.724 8.644 7.739 8.726a1.5 1.5 0 0 0 2.973-.246c.13-5.709 8.332-8.634 8.413-8.662a1.499 1.499 0 0 0-.401-2.915zm-9.584 6.795c-.924-1.886-2.34-3.947-4.447-5.28 1.855-1.041 3.697-2.629 4.87-4.916 1.057 1.874 2.654 3.954 4.941 5.223-1.849 1.101-3.988 2.741-5.364 4.973z"/><path class="st5" d="M214.507 95.55a54.536 54.536 0 0 0 1.537-12.838c0-30.056-24.366-54.422-54.422-54.422-18.105 0-34.135 8.848-44.028 22.448a45.1 45.1 0 0 0-22.855-6.189c-25.033 0-45.326 20.293-45.326 45.326 0 .651.022 1.298.049 1.943-19.177 7.153-32.836 25.627-32.836 47.297 0 26.68 20.706 48.51 46.922 50.332v.061h.807a50.83 50.83 0 0 0 2.741.077c.92 0 1.833-.028 2.741-.077h116.458a50.83 50.83 0 0 0 2.741.077c.92 0 1.833-.028 2.741-.077h.807v-.061c26.216-1.823 46.922-23.653 46.922-50.332 0-18.58-10.048-34.804-24.999-43.565z"/><path class="st0" d="M216.215 94.826a56.172 56.172 0 0 0 1.33-12.114c0-30.835-25.086-55.922-55.922-55.922-17.375 0-33.886 8.196-44.439 21.991a46.809 46.809 0 0 0-22.444-5.732c-25.82 0-46.826 21.006-46.826 46.826 0 .31.005.619.013.927-19.664 7.811-32.8 27.088-32.8 48.313 0 27.037 21.001 49.706 47.892 51.797.165.063.344.097.531.097l.727-.002c1.971.105 3.75.104 5.563.002l116.378-.002a48.957 48.957 0 0 0 5.563.002h.807c.177 0 .348-.034.506-.095 26.902-2.079 47.916-24.754 47.916-51.799-.005-17.998-9.475-34.865-24.795-44.289zm-23.736 93.125a1.437 1.437 0 0 0-.315.059l-.469.001c-1.864.1-3.378.102-5.401-.002l-116.538.002a47.23 47.23 0 0 1-5.401-.002h-.381a1.55 1.55 0 0 0-.322-.058c-25.529-1.774-45.526-23.226-45.526-48.835 0-20.341 12.804-38.783 31.861-45.892a1.499 1.499 0 0 0 .974-1.468 45.1 45.1 0 0 1-.047-1.88c0-24.166 19.66-43.826 43.826-43.826a43.795 43.795 0 0 1 22.098 5.983 1.5 1.5 0 0 0 1.971-.412c9.944-13.669 25.95-21.83 42.815-21.83 29.182 0 52.922 23.741 52.922 52.922a53.17 53.17 0 0 1-1.495 12.485 1.502 1.502 0 0 0 .7 1.647c14.962 8.767 24.256 24.964 24.256 42.271-.002 25.609-19.999 47.06-45.528 48.835z"/><path class="st3" d="M173.124 178.921h-28.779a5.04 5.04 0 0 1-5.042-5.042v-16.425c0-5.625-4.56-10.185-10.178-10.185a10.176 10.176 0 0 0-10.178 10.185v12.709c0 5.236-3.335 9.897-8.296 11.584l-9.883 3.368c.04.301.06.609.06.924v46.055c0 .141-.007.275-.007.409l2.136.542a131.85 131.85 0 0 0 31.665 4.051c.087 0 .167.007.255.007h24.835a7.224 7.224 0 0 0 7.225-7.225v-.094a7.224 7.224 0 0 0-7.225-7.225h4.942a7.224 7.224 0 0 0 7.225-7.225v-.094a7.224 7.224 0 0 0-7.225-7.225h4.942a7.224 7.224 0 0 0 7.225-7.225v-.094a7.224 7.224 0 0 0-7.225-7.225h-8.223l.007-.007h11.745a7.224 7.224 0 0 0 7.225-7.225v-.094a7.226 7.226 0 0 0-7.226-7.224z"/><path class="st0" d="M173.124 177.421h-28.779a3.546 3.546 0 0 1-3.542-3.542v-16.426c0-6.443-5.239-11.684-11.678-11.684a11.604 11.604 0 0 0-8.261 3.421 11.63 11.63 0 0 0-3.417 8.263v12.709c0 4.599-2.925 8.683-7.28 10.164l-9.883 3.368a1.501 1.501 0 0 0-1.003 1.618c.031.237.047.479.047.726v46.055l-.006.409a1.5 1.5 0 0 0 1.131 1.454l2.135.542a133.757 133.757 0 0 0 32.101 4.099l25.024.005c4.811 0 8.725-3.914 8.725-8.819a8.69 8.69 0 0 0-2.264-5.857c4.09-.722 7.206-4.31 7.206-8.686a8.694 8.694 0 0 0-2.264-5.858c4.089-.722 7.206-4.31 7.206-8.686 0-2.395-.97-4.567-2.538-6.146 3.515-1.127 6.066-4.427 6.066-8.311v-.094c-.001-4.81-3.915-8.724-8.726-8.724zm5.725 8.819a5.731 5.731 0 0 1-5.725 5.725h-11.745c-.378 0-.75.149-1.027.407a1.5 1.5 0 0 0 1.02 2.599h8.223c3.157 0 5.725 2.568 5.725 5.819a5.731 5.731 0 0 1-5.725 5.725h-4.941a1.5 1.5 0 1 0 0 3c3.157 0 5.725 2.568 5.725 5.818a5.731 5.731 0 0 1-5.725 5.725h-4.942a1.5 1.5 0 1 0 0 3c3.157 0 5.725 2.568 5.725 5.819a5.731 5.731 0 0 1-5.725 5.725l-24.901-.002-.179-.005a130.562 130.562 0 0 1-31.306-4.004l-.999-.254v-45.169l8.806-3.001a13.732 13.732 0 0 0 9.313-13.004v-12.709c0-2.318.903-4.5 2.54-6.144a8.623 8.623 0 0 1 6.138-2.54c4.785 0 8.678 3.896 8.678 8.684v16.426a6.55 6.55 0 0 0 6.542 6.542h28.779a5.731 5.731 0 0 1 5.725 5.725v.093z"/><path class="st1" d="M93.229 178.437H75.782v61.256H93.23a7.6 7.6 0 0 0 7.601-7.601v-46.054a7.602 7.602 0 0 0-7.602-7.601z"/><path class="st0" d="M93.229 176.938H75.782a1.5 1.5 0 0 0-1.5 1.5V199.5a1.5 1.5 0 1 0 3 0v-19.563H93.23a6.108 6.108 0 0 1 6.101 6.101v46.054a6.108 6.108 0 0 1-6.101 6.101H77.282v-23.026a1.5 1.5 0 1 0-3 0v24.526a1.5 1.5 0 0 0 1.5 1.5H93.23c5.018 0 9.101-4.083 9.101-9.101v-46.054c0-5.018-4.083-9.1-9.102-9.1z"/><path class="st4" d="M88.306 221.255a5.734 5.734 0 1 0 0 11.467 5.734 5.734 0 0 0 0-11.467z"/><path class="st0" d="M88.306 219.755c-3.989 0-7.234 3.245-7.234 7.234 0 3.988 3.245 7.233 7.234 7.233 3.988 0 7.233-3.245 7.233-7.233.001-3.989-3.245-7.234-7.233-7.234zm0 11.468c-2.335 0-4.234-1.899-4.234-4.233s1.899-4.234 4.234-4.234c2.334 0 4.233 1.899 4.233 4.234s-1.898 4.233-4.233 4.233z"/><path class="st4" d="M104.351 104.657a14.729 14.729 0 0 1 3.726 7.27l6.476-7.773-10.202.503z"/><path class="st0" d="M115.896 103.484a1.511 1.511 0 0 0-1.416-.829l-10.203.503a1.5 1.5 0 0 0-1.02 2.524 13.237 13.237 0 0 1 3.348 6.53 1.501 1.501 0 0 0 2.624.673l6.477-7.773a1.496 1.496 0 0 0 .19-1.628zm-7.172 5.323c-.383-.975-.86-1.91-1.425-2.793l3.914-.193-2.489 2.986z"/><path class="st3" d="M108.353 114.769c0-8.156-6.612-14.769-14.768-14.769s-14.768 6.612-14.768 14.769c0 .772.077 1.524.191 2.265-.556.136-1.11.288-1.654.477a39.166 39.166 0 0 1-1.396-.939c-10.711-7.555-15.45-19.271-19.394-13.679-2.78 3.941-.87 10.398 4.247 16.512-6.492-3.741-10.685-6.908-12.129-2.459-1.534 4.728 2.48 10.535 9.569 14.909-6.679-.603-11.137-1.254-10.581 3.081.541 4.22 5.094 7.419 11.585 8.836-.421 1.94-12.992 7.414-11.632 10.743 2.146 5.253 15.553 6.865 25.34 4.451 8.574-1.525 18.679-6.968 23.193-11.482 5.278-5.278 6.618-12.995 4.036-19.52 4.835-2.427 8.161-7.417 8.161-13.195z"/><path class="st0" d="M109.854 114.769c0-8.971-7.298-16.269-16.268-16.269-8.971 0-16.269 7.298-16.269 16.269 0 .305.011.618.033.941-.176-.12-.352-.241-.526-.364-4.099-2.892-7.358-6.481-9.977-9.366-3.269-3.602-5.622-6.184-8.241-6.043-1.243.077-2.343.78-3.267 2.091-2.278 3.23-2 7.864.583 12.825-2.468-1.306-4.456-1.979-6.163-1.334-1.165.441-2.007 1.438-2.502 2.964-1.374 4.233.823 9.137 5.821 13.458-2.662-.101-4.669.163-5.898 1.437-.865.896-1.201 2.158-.997 3.749.528 4.125 4.236 7.532 10.089 9.401-.714.493-1.547 1.031-2.255 1.489-4.467 2.887-9.086 5.872-7.781 9.066 1.771 4.335 9.305 6.495 17.229 6.494 3.317 0 6.703-.378 9.762-1.134 9.208-1.638 19.429-7.336 23.991-11.898a19.639 19.639 0 0 0 4.816-19.886 16.174 16.174 0 0 0 7.82-13.89zm-10.335 11.853a1.5 1.5 0 0 0-.722 1.893 16.644 16.644 0 0 1-3.702 17.907c-4.143 4.143-13.883 9.551-22.492 11.086-9.584 2.366-21.932.502-23.583-3.522.013-1.179 4.646-4.173 6.624-5.451 3.316-2.143 4.795-3.145 5.077-4.445a1.5 1.5 0 0 0-1.146-1.784c-6.087-1.329-9.981-4.155-10.417-7.562-.057-.442-.071-1.023.18-1.284.388-.402 1.387-.54 2.693-.54 1.44 0 3.253.167 5.035.332l1.051.096a1.51 1.51 0 0 0 1.558-1.021 1.5 1.5 0 0 0-.636-1.75c-6.683-4.124-10.188-9.293-8.93-13.17.138-.424.372-.957.71-1.084 1.104-.417 4.137 1.378 7.075 3.111a246.7 246.7 0 0 0 2.168 1.269 1.5 1.5 0 1 0 1.899-2.262c-4.79-5.723-6.427-11.487-4.172-14.685.257-.365.639-.804 1-.826 1.173-.092 3.542 2.539 5.835 5.065 2.717 2.994 6.099 6.719 10.468 9.8.48.339.964.663 1.45.976a1.5 1.5 0 0 0 1.303.155c.445-.155.927-.293 1.516-.437a1.5 1.5 0 0 0 1.128-1.687 13.101 13.101 0 0 1-.174-2.036c0-7.316 5.952-13.269 13.269-13.269 7.316 0 13.268 5.952 13.268 13.269.002 5.044-2.809 9.586-7.333 11.856z"/><path class="st0" d="M95.274 104.9a2.404 2.404 0 1 0 0 4.807 2.404 2.404 0 0 0 0-4.807z"/><path class="st1" d="M152.38 49.307c-16.742 0-30.315 12.047-30.315 26.908 0 6.913 2.94 13.215 7.766 17.981l-4.619 11.641c-.456 1.148.635 2.306 1.808 1.92l17.141-5.642a33.943 33.943 0 0 0 8.219 1.009c11.359 0 21.252-5.549 26.444-13.756 1.498-2.349 2.605-4.918 3.231-7.64a24.12 24.12 0 0 0 .639-5.512c0-14.862-13.572-26.909-30.314-26.909z"/><path class="st0" d="M152.38 47.807c-17.542 0-31.815 12.744-31.815 28.408 0 6.737 2.66 13.21 7.512 18.334l-4.259 10.734a2.93 2.93 0 0 0 .595 3.117 2.93 2.93 0 0 0 3.076.782l16.733-5.508c2.669.631 5.411.951 8.157.951 11.453 0 22.072-5.539 27.709-14.45 1.622-2.544 2.775-5.272 3.428-8.108.45-1.918.678-3.887.678-5.851 0-15.665-14.272-28.409-31.814-28.409zm28.215 33.578l-.001.007c-.575 2.502-1.596 4.915-3.037 7.174-5.096 8.055-14.743 13.058-25.177 13.058-2.647 0-5.29-.325-7.855-.965a1.504 1.504 0 0 0-.833.031l-17.086 5.7 4.619-11.641a1.501 1.501 0 0 0-.34-1.621c-4.72-4.661-7.32-10.667-7.32-16.914 0-14.01 12.926-25.408 28.815-25.408s28.814 11.398 28.814 25.408c0 1.736-.201 3.475-.599 5.171z"/><path class="st3" d="M135.747 71.65a4.815 4.815 0 1 0 0 9.63 4.815 4.815 0 0 0 0-9.63z"/><path class="st0" d="M135.747 70.15c-3.482 0-6.315 2.833-6.315 6.314s2.833 6.315 6.315 6.315 6.315-2.833 6.315-6.315-2.833-6.314-6.315-6.314zm0 9.629c-1.828 0-3.315-1.487-3.315-3.315s1.487-3.314 3.315-3.314c1.828 0 3.315 1.487 3.315 3.314s-1.487 3.315-3.315 3.315z"/><path class="st3" d="M152.38 71.65a4.815 4.815 0 1 0 0 9.63 4.815 4.815 0 0 0 0-9.63z"/><path class="st0" d="M152.38 70.15c-3.482 0-6.315 2.833-6.315 6.314s2.833 6.315 6.315 6.315 6.315-2.833 6.315-6.315-2.833-6.314-6.315-6.314zm0 9.629c-1.828 0-3.315-1.487-3.315-3.315s1.487-3.314 3.315-3.314c1.828 0 3.315 1.487 3.315 3.314s-1.487 3.315-3.315 3.315z"/><path class="st3" d="M169.013 71.65a4.815 4.815 0 1 0 0 9.63 4.815 4.815 0 0 0 0-9.63z"/><path class="st0" d="M169.013 70.15c-3.482 0-6.315 2.833-6.315 6.314s2.833 6.315 6.315 6.315 6.314-2.833 6.314-6.315-2.832-6.314-6.314-6.314zm0 9.629c-1.828 0-3.315-1.487-3.315-3.315s1.487-3.314 3.315-3.314 3.314 1.487 3.314 3.314-1.487 3.315-3.314 3.315z"/><path class="st4" d="M193.81 118.842l-9.681 4.878-10.754 5.419-7.762 3.911a10.153 10.153 0 0 1 2.676 5.31l28.131-14.173a10.157 10.157 0 0 1-2.61-5.345z"/><path class="st0" d="M197.518 123.166a8.654 8.654 0 0 1-2.227-4.558 1.5 1.5 0 0 0-2.156-1.105l-9.681 4.878a1.5 1.5 0 1 0 1.349 2.679l8.007-4.035c.319.933.755 1.821 1.3 2.646l-24.842 12.516a11.536 11.536 0 0 0-1.327-2.63l6.108-3.078a1.5 1.5 0 1 0-1.349-2.679l-7.762 3.911a1.499 1.499 0 0 0-.41 2.375 8.63 8.63 0 0 1 2.282 4.526 1.496 1.496 0 0 0 2.153 1.087l28.131-14.173a1.502 1.502 0 0 0 .424-2.36z"/><path class="st4" d="M185.254 150.204l-3.918-1.943-13.036-6.466a10.177 10.177 0 0 1-2.646 5.328l28.167 13.973a10.174 10.174 0 0 1 2.643-5.331l-11.21-5.561z"/><path class="st0" d="M197.941 155.5a1.499 1.499 0 0 0-.81-1.079l-15.128-7.504-13.036-6.466a1.499 1.499 0 0 0-2.146 1.098 8.654 8.654 0 0 1-2.257 4.543 1.5 1.5 0 0 0 .424 2.373l28.167 13.974a1.501 1.501 0 0 0 2.147-1.101 8.65 8.65 0 0 1 2.255-4.545c.325-.345.467-.825.384-1.293zm-5.113 3.428l-24.848-12.327a11.6 11.6 0 0 0 1.312-2.641l24.847 12.325a11.673 11.673 0 0 0-1.311 2.643z"/><ellipse transform="rotate(-9.213 203.897 117.197)" class="st2" cx="203.908" cy="117.227" rx="10.227" ry="10.227"/><path class="st0" d="M203.908 105.5c-6.466 0-11.727 5.261-11.727 11.727s5.261 11.727 11.727 11.727 11.727-5.261 11.727-11.727-5.261-11.727-11.727-11.727zm0 20.453c-4.812 0-8.727-3.915-8.727-8.727s3.915-8.727 8.727-8.727 8.727 3.915 8.727 8.727-3.915 8.727-8.727 8.727z"/><ellipse transform="rotate(-22.5 203.9 162.771)" class="st3" cx="203.908" cy="162.777" rx="10.227" ry="10.227"/><path class="st0" d="M203.908 151.051c-6.466 0-11.727 5.261-11.727 11.727s5.261 11.727 11.727 11.727 11.727-5.261 11.727-11.727-5.261-11.727-11.727-11.727zm0 20.453c-4.812 0-8.727-3.915-8.727-8.727s3.915-8.727 8.727-8.727 8.727 3.915 8.727 8.727-3.915 8.727-8.727 8.727z"/><path class="st1" d="M158.212 129.882c-5.648 0-10.227 4.579-10.227 10.227s4.579 10.227 10.227 10.227c5.648 0 10.227-4.579 10.227-10.227s-4.579-10.227-10.227-10.227z"/><path class="st0" d="M158.212 128.382c-6.466 0-11.727 5.261-11.727 11.727s5.261 11.727 11.727 11.727 11.727-5.261 11.727-11.727-5.261-11.727-11.727-11.727zm0 20.453c-4.812 0-8.727-3.915-8.727-8.727s3.915-8.727 8.727-8.727 8.727 3.915 8.727 8.727-3.915 8.727-8.727 8.727z"/><path class="st7" d="M213.745 96.84c-.57-.33-.85-1-.7-1.64 1-4.1 1.5-8.3 1.5-12.49 0-29.18-23.74-52.92-52.92-52.92-2.51 0-5 .18-7.46.54 25.62 3.67 45.38 25.76 45.38 52.38 0 4.19-.5 8.39-1.5 12.49-.15.64.13 1.31.7 1.64 14.97 8.77 24.26 24.97 24.26 42.28 0 9.59-2.81 18.6-7.66 26.22-.78 3.53-3.17 6.47-6.36 8-7.17 7.33-16.62 12.43-27.23 14.12-.02.19-.05.37-.09.55h4.63c2.02.1 3.54.1 5.4 0h.47c.1-.03.21-.05.31-.06 25.53-1.77 45.53-23.22 45.53-48.83 0-17.31-9.29-33.51-24.26-42.28z"/></svg>