<?xml version="1.0" encoding="utf-8"?>
<!-- Generator: Adobe Illustrator 22.0.1, SVG Export Plug-In . SVG Version: 6.00 Build 0)  -->
<svg xmlns="http://www.w3.org/2000/svg" xmlns:xlink="http://www.w3.org/1999/xlink" version="1.1" id="Layer_1" x="0px" y="0px" viewBox="0 0 256 256" style="enable-background:new 0 0 256 256;" xml:space="preserve" width="512" height="512">
<style type="text/css">
	.st0{fill:#3A312A;}
	.st1{fill:#D7E057;}
	.st2{fill:#F16C7A;}
	.st3{fill:#FCE8CB;}
	.st4{fill:#87796F;}
	.st5{fill:#8AC6DD;}
	.st6{fill:#CE4E61;}
	.st7{fill:#6CA8BF;}
	.st8{fill:#B9C239;}
	.st9{fill:#DECAAD;}
	.st10{fill:#695B51;}
	.st11{fill-rule:evenodd;clip-rule:evenodd;fill:#FCE8CB;}
	.st12{fill:#F5978A;}
	.st13{fill:#68A8BC;}
	.st14{fill:#B9BC39;}
	.st15{fill:#6B5B51;}
	.st16{fill:#D34E5C;}
	.st17{fill-rule:evenodd;clip-rule:evenodd;fill:#87796F;}
	.st18{fill-rule:evenodd;clip-rule:evenodd;fill:#F16C7A;}
</style>
<g>
	<g>
		<g>
			<path class="st1" d="M47.47,25.886c-0.974,11.564-13.024,13.39-13.024,13.39C44.792,39.762,47.37,53.334,47.37,53.334     c0.221-9.677,13.321-14.202,13.321-14.202C50.878,38.545,47.47,25.886,47.47,25.886z"/>
		</g>
	</g>
	<g>
		<g>
			<path class="st0" d="M60.781,37.635C52.176,37.12,48.949,25.61,48.917,25.494c-0.19-0.702-0.849-1.164-1.583-1.102     c-0.725,0.066-1.298,0.642-1.359,1.367c-0.86,10.215-11.313,11.964-11.754,12.033c-0.763,0.115-1.313,0.79-1.273,1.561     c0.04,0.77,0.657,1.384,1.427,1.421c9.028,0.425,11.499,12.718,11.523,12.842c0.137,0.711,0.759,1.217,1.472,1.217     c0.042,0,0.084-0.001,0.126-0.005c0.764-0.064,1.357-0.693,1.375-1.459c0.194-8.509,12.191-12.777,12.313-12.819     c0.675-0.235,1.092-0.914,0.994-1.623C62.079,38.219,61.495,37.678,60.781,37.635z M47.215,47.98     c-1.357-3.13-3.709-6.907-7.587-8.876c2.931-1.405,6.409-3.913,8.202-8.273c1.551,3.071,4.199,6.88,8.334,8.722     C53.157,41.194,49.242,43.959,47.215,47.98z"/>
		</g>
	</g>
	<g>
		<g>
			<path class="st1" d="M25.771,42.866c-0.689,8.179-9.212,9.471-9.212,9.471c7.318,0.344,9.142,9.944,9.142,9.944     c0.156-6.845,9.422-10.046,9.422-10.046C28.182,51.821,25.771,42.866,25.771,42.866z"/>
		</g>
	</g>
	<g>
		<g>
			<path class="st0" d="M35.213,50.738c-5.767-0.345-7.973-8.186-7.994-8.265c-0.19-0.702-0.854-1.165-1.582-1.102     c-0.726,0.065-1.299,0.643-1.36,1.368c-0.579,6.871-7.646,8.067-7.942,8.114c-0.763,0.115-1.313,0.79-1.273,1.561     c0.04,0.77,0.657,1.384,1.427,1.421c6.036,0.284,7.724,8.644,7.739,8.726c0.135,0.713,0.759,1.22,1.472,1.22     c0.042,0,0.083-0.001,0.125-0.005c0.765-0.063,1.358-0.694,1.376-1.461c0.13-5.709,8.331-8.634,8.413-8.662     c0.676-0.234,1.094-0.913,0.996-1.622C36.512,51.323,35.927,50.781,35.213,50.738z M25.628,57.533     c-0.924-1.885-2.34-3.947-4.447-5.279c1.855-1.042,3.697-2.63,4.871-4.917c1.057,1.874,2.654,3.954,4.941,5.224     C29.143,53.662,27.004,55.301,25.628,57.533z"/>
		</g>
	</g>
	<g>
		<g>
			<path class="st1" d="M25.771,16.209c-0.689,8.179-9.212,9.47-9.212,9.47c7.318,0.344,9.142,9.944,9.142,9.944     c0.156-6.844,9.422-10.045,9.422-10.045C28.182,25.163,25.771,16.209,25.771,16.209z"/>
		</g>
	</g>
	<g>
		<g>
			<path class="st0" d="M35.212,24.081c-5.766-0.345-7.972-8.185-7.994-8.264c-0.19-0.702-0.854-1.166-1.582-1.102     c-0.726,0.065-1.299,0.643-1.36,1.368c-0.579,6.871-7.646,8.066-7.942,8.113c-0.763,0.115-1.313,0.79-1.273,1.561     c0.04,0.77,0.657,1.384,1.427,1.421c6.036,0.284,7.724,8.644,7.739,8.726c0.135,0.713,0.759,1.22,1.472,1.22     c0.042,0,0.083-0.001,0.125-0.005c0.765-0.063,1.358-0.694,1.376-1.461c0.13-5.709,8.332-8.634,8.413-8.662     c0.677-0.234,1.094-0.913,0.996-1.622C36.512,24.665,35.927,24.124,35.212,24.081z M25.628,30.876     c-0.924-1.886-2.34-3.947-4.447-5.28c1.855-1.041,3.697-2.629,4.87-4.916c1.057,1.874,2.654,3.954,4.941,5.223     C29.143,27.004,27.004,28.644,25.628,30.876z"/>
		</g>
	</g>
	<g>
		<g>
			<path class="st5" d="M214.507,95.55c0.996-4.118,1.537-8.414,1.537-12.838c0-30.056-24.366-54.422-54.422-54.422     c-18.105,0-34.135,8.848-44.028,22.448c-6.712-3.928-14.517-6.189-22.855-6.189c-25.033,0-45.326,20.293-45.326,45.326     c0,0.651,0.022,1.298,0.049,1.943c-19.177,7.153-32.836,25.627-32.836,47.297c0,26.68,20.706,48.51,46.922,50.332v0.061h0.807     c0.908,0.049,1.821,0.077,2.741,0.077c0.92,0,1.833-0.028,2.741-0.077h116.458c0.908,0.049,1.821,0.077,2.741,0.077     c0.92,0,1.833-0.028,2.741-0.077h0.807v-0.061c26.216-1.823,46.922-23.653,46.922-50.332     C239.506,120.535,229.458,104.311,214.507,95.55z"/>
		</g>
	</g>
	<g>
		<g>
			<path class="st0" d="M216.215,94.826c0.882-3.989,1.33-8.059,1.33-12.114c0-30.835-25.086-55.922-55.922-55.922     c-17.375,0-33.886,8.196-44.439,21.991c-6.863-3.754-14.594-5.732-22.444-5.732c-25.82,0-46.826,21.006-46.826,46.826     c0,0.31,0.005,0.619,0.013,0.927c-19.664,7.811-32.8,27.088-32.8,48.313c0,27.037,21.001,49.706,47.892,51.797     c0.165,0.063,0.344,0.097,0.531,0.097l0.727-0.002c1.971,0.105,3.75,0.104,5.563,0.002l116.378-0.002     c0.986,0.053,1.909,0.079,2.822,0.079s1.836-0.026,2.741-0.077h0.807c0.177,0,0.348-0.034,0.506-0.095     c26.902-2.079,47.916-24.754,47.916-51.799C241.005,121.117,231.535,104.25,216.215,94.826z M192.479,187.951     c-0.108,0.008-0.214,0.028-0.315,0.059l-0.469,0.001c-1.864,0.1-3.378,0.102-5.401-0.002l-116.538,0.002     c-1.864,0.101-3.377,0.103-5.401-0.002h-0.381c-0.103-0.03-0.211-0.05-0.322-0.058c-25.529-1.774-45.526-23.226-45.526-48.835     c0-20.341,12.804-38.783,31.861-45.892c0.608-0.227,1.002-0.819,0.974-1.468c-0.026-0.624-0.047-1.25-0.047-1.88     c0-24.166,19.66-43.826,43.826-43.826c7.767,0,15.409,2.069,22.098,5.983c0.665,0.39,1.518,0.211,1.971-0.412     c9.944-13.669,25.95-21.83,42.815-21.83c29.182,0,52.922,23.741,52.922,52.922c0,4.183-0.503,8.384-1.495,12.485     c-0.155,0.643,0.129,1.312,0.7,1.647c14.962,8.767,24.256,24.964,24.256,42.271C238.005,164.725,218.008,186.176,192.479,187.951     z"/>
		</g>
	</g>
	<g>
		<g>
			<path class="st3" d="M173.124,178.921h-28.779c-2.786,0-5.042-2.257-5.042-5.042v-16.425c0-5.625-4.56-10.185-10.178-10.185     c-2.812,0-5.357,1.138-7.198,2.98c-1.841,1.848-2.98,4.393-2.98,7.205v12.709c0,5.236-3.335,9.897-8.296,11.584l-9.883,3.368     c0.04,0.301,0.06,0.609,0.06,0.924v46.055c0,0.141-0.007,0.275-0.007,0.409l2.136,0.542c10.352,2.632,20.985,3.984,31.665,4.051     c0.087,0,0.167,0.007,0.255,0.007h24.835c3.991,0,7.225-3.234,7.225-7.225v-0.094c0-3.991-3.234-7.225-7.225-7.225h4.942     c3.991,0,7.225-3.234,7.225-7.225v-0.094c0-3.991-3.234-7.225-7.225-7.225h4.942c3.991,0,7.225-3.234,7.225-7.225v-0.094     c0-3.991-3.234-7.225-7.225-7.225h-8.223l0.007-0.007h11.745c3.991,0,7.225-3.234,7.225-7.225v-0.094     C180.349,182.156,177.115,178.921,173.124,178.921z"/>
		</g>
	</g>
	<g>
		<g>
			<path class="st0" d="M173.124,177.421h-28.779c-1.953,0-3.542-1.589-3.542-3.542v-16.426c0-6.443-5.239-11.684-11.678-11.684     c-3.121,0-6.054,1.214-8.261,3.421c-2.204,2.211-3.417,5.146-3.417,8.263v12.709c0,4.599-2.925,8.683-7.28,10.164l-9.883,3.368     c-0.677,0.231-1.097,0.908-1.003,1.618c0.031,0.237,0.047,0.479,0.047,0.726v46.055l-0.006,0.409     c0,0.686,0.466,1.285,1.131,1.454l2.135,0.542c10.429,2.651,21.204,4.029,32.101,4.099l25.024,0.005     c4.811,0,8.725-3.914,8.725-8.819c0-2.252-0.858-4.308-2.264-5.857c4.09-0.722,7.206-4.31,7.206-8.686     c0-2.252-0.858-4.308-2.264-5.858c4.089-0.722,7.206-4.31,7.206-8.686c0-2.395-0.97-4.567-2.538-6.146     c3.515-1.127,6.066-4.427,6.066-8.311v-0.094C181.849,181.335,177.935,177.421,173.124,177.421z M178.849,186.24     c0,3.157-2.568,5.725-5.725,5.725h-11.745c-0.378,0-0.75,0.149-1.027,0.407c-0.452,0.419-0.601,1.073-0.376,1.647     c0.225,0.574,0.779,0.952,1.396,0.952h8.223c3.157,0,5.725,2.568,5.725,5.819c0,3.157-2.568,5.725-5.725,5.725h-4.941     c-0.829,0-1.5,0.671-1.5,1.5s0.671,1.5,1.5,1.5c3.157,0,5.725,2.568,5.725,5.818c0,3.157-2.568,5.725-5.725,5.725h-4.942     c-0.829,0-1.5,0.671-1.5,1.5s0.671,1.5,1.5,1.5c3.157,0,5.725,2.568,5.725,5.819c0,3.157-2.568,5.725-5.725,5.725l-24.901-0.002     l-0.179-0.005c-10.579-0.066-21.112-1.414-31.306-4.004l-0.999-0.254v-45.169l8.806-3.001c5.571-1.895,9.313-7.121,9.313-13.004     v-12.709c0-2.318,0.903-4.5,2.54-6.144c1.638-1.638,3.818-2.54,6.138-2.54c4.785,0,8.678,3.896,8.678,8.684v16.426     c0,3.607,2.935,6.542,6.542,6.542h28.779c3.157,0,5.725,2.568,5.725,5.725V186.24z"/>
		</g>
	</g>
	<g>
		<g>
			<path class="st1" d="M93.229,178.437H75.782v61.256h17.448c4.198,0,7.601-3.403,7.601-7.601v-46.054     C100.831,181.84,97.427,178.437,93.229,178.437z"/>
		</g>
	</g>
	<g>
		<g>
			<path class="st0" d="M93.229,176.938H75.782c-0.829,0-1.5,0.671-1.5,1.5V199.5c0,0.829,0.671,1.5,1.5,1.5     c0.829,0,1.5-0.671,1.5-1.5v-19.563h15.948c3.364,0,6.101,2.737,6.101,6.101v46.054c0,3.364-2.737,6.101-6.101,6.101H77.282     v-23.026c0-0.829-0.671-1.5-1.5-1.5c-0.829,0-1.5,0.671-1.5,1.5v24.526c0,0.829,0.671,1.5,1.5,1.5h17.448     c5.018,0,9.101-4.083,9.101-9.101v-46.054C102.331,181.02,98.248,176.938,93.229,176.938z"/>
		</g>
	</g>
	<g>
		<g>
			<path class="st4" d="M88.306,221.255c-3.167,0-5.734,2.567-5.734,5.734c0,3.167,2.567,5.734,5.734,5.734     c3.167,0,5.734-2.567,5.734-5.734C94.04,223.823,91.473,221.255,88.306,221.255z"/>
		</g>
	</g>
	<g>
		<g>
			<path class="st0" d="M88.306,219.755c-3.989,0-7.234,3.245-7.234,7.234c0,3.988,3.245,7.233,7.234,7.233     c3.988,0,7.233-3.245,7.233-7.233C95.54,223,92.294,219.755,88.306,219.755z M88.306,231.223c-2.335,0-4.234-1.899-4.234-4.233     s1.899-4.234,4.234-4.234c2.334,0,4.233,1.899,4.233,4.234S90.641,231.223,88.306,231.223z"/>
		</g>
	</g>
	<g>
		<g>
			<path class="st4" d="M104.351,104.657c1.865,1.987,3.185,4.489,3.726,7.27l6.476-7.773L104.351,104.657z"/>
		</g>
	</g>
	<g>
		<g>
			<path class="st0" d="M115.896,103.484c-0.266-0.533-0.834-0.859-1.416-0.829l-10.203,0.503c-0.584,0.029-1.098,0.394-1.317,0.936     c-0.219,0.542-0.103,1.162,0.297,1.588c1.713,1.826,2.871,4.083,3.348,6.53c0.111,0.568,0.539,1.022,1.1,1.166     c0.123,0.032,0.248,0.047,0.372,0.047c0.439,0,0.863-0.193,1.152-0.54l6.477-7.773     C116.087,104.657,116.162,104.017,115.896,103.484z M108.724,108.807c-0.383-0.975-0.86-1.91-1.425-2.793l3.914-0.193     L108.724,108.807z"/>
		</g>
	</g>
	<g>
		<g>
			<path class="st3" d="M108.353,114.769c0-8.156-6.612-14.769-14.768-14.769c-8.156,0-14.768,6.612-14.768,14.769     c0,0.772,0.077,1.524,0.191,2.265c-0.556,0.136-1.11,0.288-1.654,0.477c-0.468-0.301-0.934-0.613-1.396-0.939     c-10.711-7.555-15.45-19.271-19.394-13.679c-2.78,3.941-0.87,10.398,4.247,16.512c-6.492-3.741-10.685-6.908-12.129-2.459     c-1.534,4.728,2.48,10.535,9.569,14.909c-6.679-0.603-11.137-1.254-10.581,3.081c0.541,4.22,5.094,7.419,11.585,8.836     c-0.421,1.94-12.992,7.414-11.632,10.743c2.146,5.253,15.553,6.865,25.34,4.451c8.574-1.525,18.679-6.968,23.193-11.482     c5.278-5.278,6.618-12.995,4.036-19.52C105.027,125.537,108.353,120.547,108.353,114.769z"/>
		</g>
	</g>
	<g>
		<g>
			<path class="st0" d="M109.854,114.769c0-8.971-7.298-16.269-16.268-16.269c-8.971,0-16.269,7.298-16.269,16.269     c0,0.305,0.011,0.618,0.033,0.941c-0.176-0.12-0.352-0.241-0.526-0.364c-4.099-2.892-7.358-6.481-9.977-9.366     c-3.269-3.602-5.622-6.184-8.241-6.043c-1.243,0.077-2.343,0.78-3.267,2.091c-2.278,3.23-2,7.864,0.583,12.825     c-2.468-1.306-4.456-1.979-6.163-1.334c-1.165,0.441-2.007,1.438-2.502,2.964c-1.374,4.233,0.823,9.137,5.821,13.458     c-2.662-0.101-4.669,0.163-5.898,1.437c-0.865,0.896-1.201,2.158-0.997,3.749c0.528,4.125,4.236,7.532,10.089,9.401     c-0.714,0.493-1.547,1.031-2.255,1.489c-4.467,2.887-9.086,5.872-7.781,9.066c1.771,4.335,9.305,6.495,17.229,6.494     c3.317,0,6.703-0.378,9.762-1.134c9.208-1.638,19.429-7.336,23.991-11.898c5.229-5.229,7.052-12.908,4.816-19.886     C106.889,125.714,109.854,120.505,109.854,114.769z M99.519,126.622c-0.695,0.349-1.008,1.17-0.722,1.893     c2.447,6.182,0.994,13.211-3.702,17.907c-4.143,4.143-13.883,9.551-22.492,11.086c-9.584,2.366-21.932,0.502-23.583-3.522     c0.013-1.179,4.646-4.173,6.624-5.451c3.316-2.143,4.795-3.145,5.077-4.445c0.176-0.809-0.337-1.607-1.146-1.784     c-6.087-1.329-9.981-4.155-10.417-7.562c-0.057-0.442-0.071-1.023,0.18-1.284c0.388-0.402,1.387-0.54,2.693-0.54     c1.44,0,3.253,0.167,5.035,0.332l1.051,0.096c0.693,0.054,1.338-0.36,1.558-1.021c0.22-0.66-0.044-1.385-0.636-1.75     c-6.683-4.124-10.188-9.293-8.93-13.17c0.138-0.424,0.372-0.957,0.71-1.084c1.104-0.417,4.137,1.378,7.075,3.111     c0.691,0.408,1.414,0.834,2.168,1.269c0.631,0.362,1.43,0.222,1.898-0.335c0.468-0.557,0.468-1.369,0.001-1.927     c-4.79-5.723-6.427-11.487-4.172-14.685c0.257-0.365,0.639-0.804,1-0.826c1.173-0.092,3.542,2.539,5.835,5.065     c2.717,2.994,6.099,6.719,10.468,9.8c0.48,0.339,0.964,0.663,1.45,0.976c0.387,0.249,0.868,0.306,1.303,0.155     c0.445-0.155,0.927-0.293,1.516-0.437c0.757-0.184,1.247-0.917,1.128-1.687c-0.119-0.768-0.174-1.415-0.174-2.036     c0-7.316,5.952-13.269,13.269-13.269c7.316,0,13.268,5.952,13.268,13.269C106.854,119.81,104.043,124.352,99.519,126.622z"/>
		</g>
	</g>
	<g>
		<g>
			<path class="st0" d="M95.274,104.9c-1.328,0-2.404,1.076-2.404,2.404s1.076,2.404,2.404,2.404c1.328,0,2.404-1.076,2.404-2.404     S96.601,104.9,95.274,104.9z"/>
		</g>
	</g>
	<g>
		<g>
			<path class="st1" d="M152.38,49.307c-16.742,0-30.315,12.047-30.315,26.908c0,6.913,2.94,13.215,7.766,17.981l-4.619,11.641     c-0.456,1.148,0.635,2.306,1.808,1.92l17.141-5.642c2.615,0.652,5.369,1.009,8.219,1.009c11.359,0,21.252-5.549,26.444-13.756     c1.498-2.349,2.605-4.918,3.231-7.64c0.417-1.779,0.639-3.623,0.639-5.512C182.694,61.354,169.122,49.307,152.38,49.307z"/>
		</g>
	</g>
	<g>
		<g>
			<path class="st0" d="M152.38,47.807c-17.542,0-31.815,12.744-31.815,28.408c0,6.737,2.66,13.21,7.512,18.334l-4.259,10.734     c-0.428,1.078-0.2,2.272,0.595,3.117c0.572,0.607,1.342,0.933,2.139,0.933c0.312,0,0.628-0.049,0.937-0.151l16.733-5.508     c2.669,0.631,5.411,0.951,8.157,0.951c11.453,0,22.072-5.539,27.709-14.45c1.622-2.544,2.775-5.272,3.428-8.108     c0.45-1.918,0.678-3.887,0.678-5.851C184.194,60.551,169.922,47.807,152.38,47.807z M180.595,81.385     c0,0.002-0.001,0.004-0.001,0.007c-0.575,2.502-1.596,4.915-3.037,7.174c-5.096,8.055-14.743,13.058-25.177,13.058     c-2.647,0-5.29-0.325-7.855-0.965c-0.275-0.068-0.562-0.058-0.833,0.031l-17.086,5.7l4.619-11.641     c0.222-0.56,0.088-1.198-0.34-1.621c-4.72-4.661-7.32-10.667-7.32-16.914c0-14.01,12.926-25.408,28.815-25.408     s28.814,11.398,28.814,25.408C181.194,77.95,180.993,79.689,180.595,81.385z"/>
		</g>
	</g>
	<g>
		<g>
			<path class="st3" d="M135.747,71.65c-2.659,0-4.815,2.156-4.815,4.815c0,2.659,2.156,4.815,4.815,4.815     c2.659,0,4.815-2.156,4.815-4.815C140.562,73.805,138.406,71.65,135.747,71.65z"/>
		</g>
	</g>
	<g>
		<g>
			<path class="st0" d="M135.747,70.15c-3.482,0-6.315,2.833-6.315,6.314s2.833,6.315,6.315,6.315c3.482,0,6.315-2.833,6.315-6.315     S139.229,70.15,135.747,70.15z M135.747,79.779c-1.828,0-3.315-1.487-3.315-3.315s1.487-3.314,3.315-3.314     c1.828,0,3.315,1.487,3.315,3.314S137.575,79.779,135.747,79.779z"/>
		</g>
	</g>
	<g>
		<g>
			<path class="st3" d="M152.38,71.65c-2.659,0-4.815,2.156-4.815,4.815c0,2.659,2.156,4.815,4.815,4.815     c2.659,0,4.815-2.156,4.815-4.815C157.195,73.805,155.039,71.65,152.38,71.65z"/>
		</g>
	</g>
	<g>
		<g>
			<path class="st0" d="M152.38,70.15c-3.482,0-6.315,2.833-6.315,6.314s2.833,6.315,6.315,6.315c3.482,0,6.315-2.833,6.315-6.315     S155.862,70.15,152.38,70.15z M152.38,79.779c-1.828,0-3.315-1.487-3.315-3.315s1.487-3.314,3.315-3.314     c1.828,0,3.315,1.487,3.315,3.314S154.208,79.779,152.38,79.779z"/>
		</g>
	</g>
	<g>
		<g>
			<path class="st3" d="M169.013,71.65c-2.659,0-4.815,2.156-4.815,4.815c0,2.659,2.156,4.815,4.815,4.815     c2.659,0,4.815-2.156,4.815-4.815C173.827,73.805,171.672,71.65,169.013,71.65z"/>
		</g>
	</g>
	<g>
		<g>
			<path class="st0" d="M169.013,70.15c-3.482,0-6.315,2.833-6.315,6.314s2.833,6.315,6.315,6.315c3.482,0,6.314-2.833,6.314-6.315     S172.495,70.15,169.013,70.15z M169.013,79.779c-1.828,0-3.315-1.487-3.315-3.315s1.487-3.314,3.315-3.314     s3.314,1.487,3.314,3.314S170.84,79.779,169.013,79.779z"/>
		</g>
	</g>
	<g>
		<g>
			<path class="st4" d="M193.81,118.842l-9.681,4.878l-10.754,5.419l-7.762,3.911c1.371,1.436,2.328,3.267,2.676,5.31l28.131-14.173     C195.067,122.734,194.133,120.891,193.81,118.842z"/>
		</g>
	</g>
	<g>
		<g>
			<path class="st0" d="M197.518,123.166c-1.187-1.275-1.957-2.851-2.227-4.558c-0.075-0.473-0.371-0.882-0.797-1.101     c-0.427-0.218-0.932-0.22-1.359-0.004l-9.681,4.878c-0.74,0.373-1.038,1.274-0.665,2.014c0.374,0.74,1.276,1.037,2.014,0.665     l8.007-4.035c0.319,0.933,0.755,1.821,1.3,2.646l-24.842,12.516c-0.328-0.929-0.773-1.812-1.327-2.63l6.108-3.078     c0.74-0.373,1.038-1.274,0.665-2.014c-0.373-0.74-1.276-1.039-2.014-0.665l-7.762,3.911c-0.424,0.214-0.723,0.616-0.803,1.084     c-0.081,0.468,0.065,0.947,0.393,1.291c1.204,1.261,1.993,2.826,2.282,4.526c0.079,0.469,0.377,0.873,0.802,1.087     c0.212,0.107,0.444,0.161,0.676,0.161c0.231,0,0.462-0.054,0.675-0.161l28.131-14.173c0.421-0.212,0.718-0.61,0.802-1.075     C197.979,123.987,197.839,123.511,197.518,123.166z"/>
		</g>
	</g>
	<g>
		<g>
			<path class="st4" d="M185.254,150.204l-3.918-1.943l-13.036-6.466c-0.339,2.046-1.284,3.886-2.646,5.328l28.167,13.973     c0.336-2.045,1.281-3.886,2.643-5.331L185.254,150.204z"/>
		</g>
	</g>
	<g>
		<g>
			<path class="st0" d="M197.941,155.5c-0.084-0.468-0.384-0.868-0.81-1.079l-15.128-7.504l-13.036-6.466     c-0.426-0.211-0.926-0.208-1.35,0.008c-0.423,0.217-0.719,0.621-0.796,1.09c-0.283,1.708-1.063,3.279-2.257,4.543     c-0.326,0.346-0.469,0.826-0.386,1.293c0.084,0.468,0.384,0.869,0.81,1.08l28.167,13.974c0.21,0.104,0.438,0.156,0.667,0.156     c0.235,0,0.47-0.055,0.685-0.165c0.423-0.217,0.718-0.623,0.795-1.092c0.28-1.706,1.06-3.277,2.255-4.545     C197.882,156.448,198.024,155.968,197.941,155.5z M192.828,158.928l-24.848-12.327c0.548-0.822,0.989-1.708,1.312-2.641     l24.847,12.325C193.591,157.109,193.151,157.996,192.828,158.928z"/>
		</g>
	</g>
	<g>
		<g>
			
				<ellipse transform="matrix(0.9871 -0.1602 0.1602 0.9871 -16.1447 34.1762)" class="st2" cx="203.908" cy="117.227" rx="10.227" ry="10.227"/>
		</g>
	</g>
	<g>
		<g>
			<path class="st0" d="M203.908,105.5c-6.466,0-11.727,5.261-11.727,11.727s5.261,11.727,11.727,11.727s11.727-5.261,11.727-11.727     S210.374,105.5,203.908,105.5z M203.908,125.953c-4.812,0-8.727-3.915-8.727-8.727s3.915-8.727,8.727-8.727     s8.727,3.915,8.727,8.727S208.72,125.953,203.908,125.953z"/>
		</g>
	</g>
	<g>
		<g>
			
				<ellipse transform="matrix(0.9239 -0.3827 0.3827 0.9239 -46.7707 90.4233)" class="st3" cx="203.908" cy="162.777" rx="10.227" ry="10.227"/>
		</g>
	</g>
	<g>
		<g>
			<path class="st0" d="M203.908,151.051c-6.466,0-11.727,5.261-11.727,11.727c0,6.466,5.261,11.727,11.727,11.727     s11.727-5.261,11.727-11.727C215.635,156.312,210.374,151.051,203.908,151.051z M203.908,171.504     c-4.812,0-8.727-3.915-8.727-8.727s3.915-8.727,8.727-8.727s8.727,3.915,8.727,8.727S208.72,171.504,203.908,171.504z"/>
		</g>
	</g>
	<g>
		<g>
			<path class="st1" d="M158.212,129.882c-5.648,0-10.227,4.579-10.227,10.227s4.579,10.227,10.227,10.227     c5.648,0,10.227-4.579,10.227-10.227S163.86,129.882,158.212,129.882z"/>
		</g>
	</g>
	<g>
		<g>
			<path class="st0" d="M158.212,128.382c-6.466,0-11.727,5.261-11.727,11.727s5.261,11.727,11.727,11.727     c6.466,0,11.727-5.261,11.727-11.727S164.678,128.382,158.212,128.382z M158.212,148.835c-4.812,0-8.727-3.915-8.727-8.727     s3.915-8.727,8.727-8.727s8.727,3.915,8.727,8.727S163.024,148.835,158.212,148.835z"/>
		</g>
	</g>
	<g>
		<g>
			<path class="st7" d="M213.745,96.84c-0.57-0.33-0.85-1-0.7-1.64c1-4.1,1.5-8.3,1.5-12.49c0-29.18-23.74-52.92-52.92-52.92     c-2.51,0-5,0.18-7.46,0.54c25.62,3.67,45.38,25.76,45.38,52.38c0,4.19-0.5,8.39-1.5,12.49c-0.15,0.64,0.13,1.31,0.7,1.64     c14.97,8.77,24.26,24.97,24.26,42.28c0,9.59-2.81,18.6-7.66,26.22c-0.78,3.53-3.17,6.47-6.36,8     c-7.17,7.33-16.62,12.43-27.23,14.12c-0.02,0.19-0.05,0.37-0.09,0.55h4.63c2.02,0.1,3.54,0.1,5.4,0h0.47     c0.1-0.03,0.21-0.05,0.31-0.06c25.53-1.77,45.53-23.22,45.53-48.83C238.005,121.81,228.715,105.61,213.745,96.84z"/>
		</g>
	</g>
</g>
</svg>
