<svg enable-background="new 0 0 469.417 469.417" viewBox="0 0 469.417 469.417" xmlns="http://www.w3.org/2000/svg" xmlns:xlink="http://www.w3.org/1999/xlink"><linearGradient id="a"><stop offset="0" stop-color="#fff" stop-opacity=".2"/><stop offset="1" stop-color="#fff" stop-opacity="0"/></linearGradient><linearGradient id="b" gradientTransform="matrix(21.3333 0 0 -21.3333 1429.2639 13316.1533)" gradientUnits="userSpaceOnUse" x1="-54.3912" x2="-51.6083" xlink:href="#a" y1="613.024" y2="611.7261"/><linearGradient id="c" gradientTransform="matrix(21.3333 0 0 -21.3333 1429.2639 13316.1533)" gradientUnits="userSpaceOnUse" x1="-60.4259" x2="-57.7924" xlink:href="#a" y1="612.9497" y2="611.7209"/><linearGradient id="d" gradientTransform="matrix(21.3333 0 0 -21.3333 1429.2639 13316.1533)" gradientUnits="userSpaceOnUse" x1="-66.4398" x2="-42.4882" xlink:href="#a" y1="619.1206" y2="607.9528"/><path d="m469.417 141.219c0-33.475-48.086-52.875-96.607-55.536-4.194-31.457-31.828-85.651-59.331-85.651-9.896 0-21.458 2.302-33.708 4.729-14 2.781-29.854 5.938-45.063 5.938-15.208 0-31.063-3.156-45.063-5.938-12.25-2.427-23.813-4.729-33.708-4.729-27.503 0-55.137 54.194-59.331 85.651-48.52 2.661-96.606 22.06-96.606 55.536 0 23.544 26.941 52.845 84.034 72.331-.579 6.904-1.02 14.025-1.138 21.336-16.792 11.572-18.896 31.145-18.896 45.447 0 18.802 16.75 60.646 40.667 68.375.188.49.375.99.583 1.521 10.333 26.771 37.75 97.886 129.458 97.886s119.125-71.115 129.459-97.886c.208-.531.396-1.031.583-1.521 23.917-7.729 40.667-49.573 40.667-68.375 0-14.302-2.104-33.865-18.875-45.448-.133-7.264-.577-14.395-1.16-21.335 57.093-19.486 84.035-48.787 84.035-72.331z" fill="#303c42"/><path d="m117.417 93.26c0-26.479 28.417-71.813 38.521-71.813 7.792 0 18.354 2.104 29.542 4.323 14.958 2.969 31.917 6.344 49.229 6.344s34.271-3.375 49.229-6.344c11.188-2.219 21.75-4.323 29.542-4.323 10.103.001 38.52 45.334 38.52 71.813l.003 2.728s-.003.008-.003.012l.003.013.039 44.299c-.063.302-7.813 30.385-117.333 30.385-108.729 0-117.167-29.646-117.292-29.646z" fill="#5c6671"/><path d="m117.458 103.927c0-26.479 28.417-71.813 38.521-71.813 7.792 0 18.354 2.104 29.542 4.323 14.958 2.969 31.917 6.344 49.229 6.344s34.271-3.375 49.229-6.344c11.188-2.219 21.75-4.323 29.542-4.323 10.072 0 38.303 45.02 38.488 71.534l-.007-7.635-.002-.013c0-.004.003-.008.003-.008l-.003-2.732c0-26.479-28.417-71.813-38.521-71.813-7.792 0-18.354 2.104-29.542 4.323-14.958 2.969-31.917 6.344-49.229 6.344s-34.271-3.375-49.229-6.344c-11.188-2.219-21.75-4.323-29.542-4.323-10.104 0-38.521 45.333-38.521 71.813v47.792s.034.077.042.096z" fill="#fff" opacity=".2"/><path d="m365.188 241.063c0 4.115 2.354 7.865 6.063 9.646 6.625 3.188 12.75 8.99 12.75 29.625 0 15.76-16.646 48.198-26.938 48.198-4.188 0-7.979 2.427-9.729 6.219-.875 1.896-1.896 4.542-3.146 7.771-9.708 25.188-32.479 84.177-109.479 84.177s-99.771-58.99-109.479-84.177c-1.25-3.229-2.271-5.875-3.146-7.771-1.75-3.792-5.542-6.219-9.729-6.219-10.292 0-26.938-32.438-26.938-48.198 0-20.635 6.146-26.427 12.771-29.615 3.708-1.792 6.063-5.542 6.063-9.656 0-7.193.32-14.263.789-21.152 6.418 1.699 13.167 3.267 20.203 4.716-4.835 5.607-7.867 12.813-7.867 20.78v10.667c0 23.531 19.146 42.667 42.667 42.667h10.667c29.417 0 53.333-23.927 53.333-53.333v-8.875c1.023-.582 3.891-1.682 10.04-1.763.216 0 .41.013.626.013s.41-.013.626-.013c6.148.082 8.996 1.181 10.04 1.763v8.875c0 29.406 23.917 53.333 53.333 53.333h10.667c23.521 0 42.667-19.135 42.667-42.667v-10.667c0-7.967-3.033-15.173-7.867-20.78 7.04-1.449 13.79-3.018 20.211-4.719.476 6.929.802 14.009.802 21.155z" fill="#dee0e3"/><path d="m277.375 234.74h42.667c5.875 0 10.667 4.781 10.667 10.667v10.667c0 11.76-9.563 21.333-21.333 21.333h-10.667c-17.646 0-32-14.354-32-32-.001-5.886 4.791-10.667 10.666-10.667z" fill="#5c6671"/><path d="m138.708 245.406c0-5.885 4.792-10.667 10.667-10.667h42.667c5.875 0 10.667 4.781 10.667 10.667 0 17.646-14.354 32-32 32h-10.667c-11.771 0-21.333-9.573-21.333-21.333v-10.667z" fill="#5c6671"/><path d="m277.375 234.74h42.667c5.875 0 10.667 4.781 10.667 10.667v10.667c0 11.76-9.563 21.333-21.333 21.333h-10.667c-17.646 0-32-14.354-32-32-.001-5.886 4.791-10.667 10.666-10.667z" fill="url(#b)"/><path d="m138.708 245.406c0-5.885 4.792-10.667 10.667-10.667h42.667c5.875 0 10.667 4.781 10.667 10.667 0 17.646-14.354 32-32 32h-10.667c-11.771 0-21.333-9.573-21.333-21.333v-10.667z" fill="url(#c)"/><path d="m234.708 213.365c-160.771 0-213.292-53.656-213.292-72.146 0-14.751 31.305-31.16 74.583-33.875v33.708c0 8.531 6.688 51.063 138.708 51.063s138.708-42.531 138.708-51.063v-33.708c43.28 2.715 74.585 19.123 74.585 33.875 0 18.489-52.521 72.146-213.292 72.146z" fill="#5c6671"/><path d="m416.303 115.475c6.555 4.82 10.447 10.03 10.447 15.077 0 18.49-52.521 72.146-213.292 72.146-75.059 0-126.283-11.73-159.823-26.082 31.316 18.743 87.948 36.749 181.073 36.749 160.771 0 213.292-53.656 213.292-72.146 0-9.175-12.13-18.981-31.697-25.744z" opacity=".1"/><path d="m298.75 352.042c0-29.417 23.917-53.344 53.333-53.344s53.333 23.927 53.333 53.344c0 14.674-5.958 27.977-15.576 37.63-.021.021-.049.026-.07.047-.022.022-.029.053-.051.077-9.652 9.626-22.957 15.59-37.637 15.59-29.415-.001-53.332-23.928-53.332-53.344z" fill="#bbdefb" opacity=".7"/><path d="m307.074 360.355c0-29.417 23.917-53.344 53.333-53.344 12.57 0 23.982 4.551 33.107 11.85-9.781-12.191-24.616-20.164-41.431-20.164-29.417 0-53.333 23.927-53.333 53.344 0 16.846 7.999 31.711 20.227 41.493-7.331-9.137-11.903-20.577-11.903-33.179z" opacity=".1"/><path d="m346.749 368.046c0-8.826 7.175-16.004 16.001-16.004s16.001 7.179 16.001 16.004c0 4.403-1.788 8.393-4.673 11.29l-.015.008s-.015.022-.021.029c-2.896 2.888-6.888 4.677-11.292 4.677-8.826 0-16.001-7.179-16.001-16.004z" fill="#fff" opacity=".2"/><path d="m466.292 451.177-54.609-54.628c9.335-12.466 15.068-27.771 15.068-44.508 0-41.177-33.5-74.677-74.667-74.677s-74.667 33.5-74.667 74.677 33.5 74.677 74.667 74.677c16.742 0 32.051-5.74 44.518-15.083l54.607 54.625c2.083 2.083 4.813 3.125 7.542 3.125s5.458-1.042 7.542-3.125c4.165-4.166 4.165-10.916-.001-15.083zm-76.451-61.505c-.021.021-.049.026-.07.047-.022.022-.029.053-.051.077-9.652 9.626-22.957 15.59-37.637 15.59-29.417 0-53.333-23.927-53.333-53.344s23.917-53.344 53.333-53.344 53.333 23.927 53.333 53.344c.001 14.674-5.958 27.976-15.575 37.63z" fill="#303c42"/><path d="m411.682 396.549c9.335-12.466 15.068-27.771 15.068-44.508 0-21.664-9.422-41.033-24.206-54.686 1.845-6.48 2.872-12.447 2.872-17.022 0-14.302-2.104-33.865-18.875-45.448-.133-7.264-.577-14.395-1.16-21.335 57.094-19.487 84.035-48.788 84.035-72.332 0-33.475-48.086-52.875-96.607-55.536-4.194-31.457-31.828-85.651-59.331-85.651-9.896 0-21.458 2.302-33.708 4.729-14 2.781-29.854 5.938-45.063 5.938-15.208 0-31.063-3.156-45.063-5.938-12.25-2.427-23.813-4.729-33.708-4.729-27.503 0-55.137 54.194-59.331 85.651-48.519 2.662-96.605 22.061-96.605 55.537 0 23.544 26.941 52.845 84.034 72.331-.579 6.904-1.02 14.025-1.138 21.336-16.792 11.572-18.896 31.145-18.896 45.447 0 18.802 16.75 60.646 40.667 68.375.188.49.375.99.583 1.521 10.333 26.771 37.75 97.886 129.458 97.886 38.516 0 65.585-12.6 84.918-29.134 9.855 4.805 20.776 7.738 32.457 7.738 16.742 0 32.051-5.74 44.518-15.083l54.607 54.625c2.083 2.083 4.813 3.125 7.542 3.125s5.458-1.042 7.542-3.125c4.167-4.167 4.167-10.917 0-15.083z" fill="url(#d)"/></svg>