<?xml version="1.0" encoding="iso-8859-1"?>
<!-- Generator: Adobe Illustrator 19.0.0, SVG Export Plug-In . SVG Version: 6.00 Build 0)  -->
<svg version="1.1" id="Capa_1" xmlns="http://www.w3.org/2000/svg" xmlns:xlink="http://www.w3.org/1999/xlink" x="0px" y="0px"
	 viewBox="0 0 469.417 469.417" style="enable-background:new 0 0 469.417 469.417;" xml:space="preserve">
<path style="fill:#303C42;" d="M469.417,141.219c0-33.475-48.086-52.875-96.607-55.536c-4.194-31.457-31.828-85.651-59.331-85.651
	c-9.896,0-21.458,2.302-33.708,4.729c-14,2.781-29.854,5.938-45.063,5.938c-15.208,0-31.063-3.156-45.063-5.938
	c-12.25-2.427-23.813-4.729-33.708-4.729c-27.503,0-55.137,54.194-59.331,85.651C48.086,88.344,0,107.743,0,141.219
	c0,23.544,26.941,52.845,84.034,72.331c-0.579,6.904-1.02,14.025-1.138,21.336C66.104,246.458,64,266.031,64,280.333
	c0,18.802,16.75,60.646,40.667,68.375c0.188,0.49,0.375,0.99,0.583,1.521C115.583,377,143,448.115,234.708,448.115
	S353.833,377,364.167,350.229c0.208-0.531,0.396-1.031,0.583-1.521c23.917-7.729,40.667-49.573,40.667-68.375
	c0-14.302-2.104-33.865-18.875-45.448c-0.133-7.264-0.577-14.395-1.16-21.335C442.475,194.064,469.417,164.763,469.417,141.219z"/>
<path style="fill:#5C6671;" d="M117.417,93.26c0-26.479,28.417-71.813,38.521-71.813c7.792,0,18.354,2.104,29.542,4.323
	c14.958,2.969,31.917,6.344,49.229,6.344s34.271-3.375,49.229-6.344c11.188-2.219,21.75-4.323,29.542-4.323
	C323.583,21.448,352,66.781,352,93.26l0.003,2.728c0,0-0.003,0.008-0.003,0.012l0.003,0.013l0.039,44.299
	c-0.063,0.302-7.813,30.385-117.333,30.385c-108.729,0-117.167-29.646-117.292-29.646V93.26z"/>
<path style="opacity:0.2;fill:#FFFFFF;enable-background:new    ;" d="M117.458,103.927c0-26.479,28.417-71.813,38.521-71.813
	c7.792,0,18.354,2.104,29.542,4.323c14.958,2.969,31.917,6.344,49.229,6.344s34.271-3.375,49.229-6.344
	c11.188-2.219,21.75-4.323,29.542-4.323c10.072,0,38.303,45.02,38.488,71.534l-0.007-7.635L352,96c0-0.004,0.003-0.008,0.003-0.008
	L352,93.26c0-26.479-28.417-71.813-38.521-71.813c-7.792,0-18.354,2.104-29.542,4.323c-14.958,2.969-31.917,6.344-49.229,6.344
	s-34.271-3.375-49.229-6.344c-11.188-2.219-21.75-4.323-29.542-4.323c-10.104,0-38.521,45.333-38.521,71.813v47.792
	c0,0,0.034,0.077,0.042,0.096V103.927z"/>
<path style="fill:#DEE0E3;" d="M365.188,241.063c0,4.115,2.354,7.865,6.063,9.646c6.625,3.188,12.75,8.99,12.75,29.625
	c0,15.76-16.646,48.198-26.938,48.198c-4.188,0-7.979,2.427-9.729,6.219c-0.875,1.896-1.896,4.542-3.146,7.771
	c-9.708,25.188-32.479,84.177-109.479,84.177s-99.771-58.99-109.479-84.177c-1.25-3.229-2.271-5.875-3.146-7.771
	c-1.75-3.792-5.542-6.219-9.729-6.219c-10.292,0-26.938-32.438-26.938-48.198c0-20.635,6.146-26.427,12.771-29.615
	c3.708-1.792,6.063-5.542,6.063-9.656c0-7.193,0.32-14.263,0.789-21.152c6.418,1.699,13.167,3.267,20.203,4.716
	c-4.835,5.607-7.867,12.813-7.867,20.78v10.667c0,23.531,19.146,42.667,42.667,42.667h10.667c29.417,0,53.333-23.927,53.333-53.333
	v-8.875c1.023-0.582,3.891-1.682,10.04-1.763c0.216,0,0.41,0.013,0.626,0.013c0.216,0,0.41-0.013,0.626-0.013
	c6.148,0.082,8.996,1.181,10.04,1.763v8.875c0,29.406,23.917,53.333,53.333,53.333h10.667c23.521,0,42.667-19.135,42.667-42.667
	v-10.667c0-7.967-3.033-15.173-7.867-20.78c7.04-1.449,13.79-3.018,20.211-4.719C364.862,226.837,365.188,233.917,365.188,241.063z"
	/>
<g>
	<path style="fill:#5C6671;" d="M277.375,234.74h42.667c5.875,0,10.667,4.781,10.667,10.667v10.667
		c0,11.76-9.563,21.333-21.333,21.333h-10.667c-17.646,0-32-14.354-32-32C266.708,239.521,271.5,234.74,277.375,234.74z"/>
	<path style="fill:#5C6671;" d="M138.708,245.406c0-5.885,4.792-10.667,10.667-10.667h42.667c5.875,0,10.667,4.781,10.667,10.667
		c0,17.646-14.354,32-32,32h-10.667c-11.771,0-21.333-9.573-21.333-21.333V245.406z"/>
</g>
<linearGradient id="SVGID_1_" gradientUnits="userSpaceOnUse" x1="-54.3912" y1="613.024" x2="-51.6083" y2="611.7261" gradientTransform="matrix(21.3333 0 0 -21.3333 1429.2639 13316.1533)">
	<stop  offset="0" style="stop-color:#FFFFFF;stop-opacity:0.2"/>
	<stop  offset="1" style="stop-color:#FFFFFF;stop-opacity:0"/>
</linearGradient>
<path style="fill:url(#SVGID_1_);" d="M277.375,234.74h42.667c5.875,0,10.667,4.781,10.667,10.667v10.667
	c0,11.76-9.563,21.333-21.333,21.333h-10.667c-17.646,0-32-14.354-32-32C266.708,239.521,271.5,234.74,277.375,234.74z"/>
<linearGradient id="SVGID_2_" gradientUnits="userSpaceOnUse" x1="-60.4259" y1="612.9497" x2="-57.7924" y2="611.7209" gradientTransform="matrix(21.3333 0 0 -21.3333 1429.2639 13316.1533)">
	<stop  offset="0" style="stop-color:#FFFFFF;stop-opacity:0.2"/>
	<stop  offset="1" style="stop-color:#FFFFFF;stop-opacity:0"/>
</linearGradient>
<path style="fill:url(#SVGID_2_);" d="M138.708,245.406c0-5.885,4.792-10.667,10.667-10.667h42.667
	c5.875,0,10.667,4.781,10.667,10.667c0,17.646-14.354,32-32,32h-10.667c-11.771,0-21.333-9.573-21.333-21.333V245.406z"/>
<path style="fill:#5C6671;" d="M234.708,213.365c-160.771,0-213.292-53.656-213.292-72.146c0-14.751,31.305-31.16,74.583-33.875
	v33.708c0,8.531,6.688,51.063,138.708,51.063s138.708-42.531,138.708-51.063v-33.708C416.695,110.059,448,126.467,448,141.219
	C448,159.708,395.479,213.365,234.708,213.365z"/>
<path style="opacity:0.1;enable-background:new    ;" d="M416.303,115.475c6.555,4.82,10.447,10.03,10.447,15.077
	c0,18.49-52.521,72.146-213.292,72.146c-75.059,0-126.283-11.73-159.823-26.082c31.316,18.743,87.948,36.749,181.073,36.749
	c160.771,0,213.292-53.656,213.292-72.146C448,132.044,435.87,122.238,416.303,115.475z"/>
<path style="opacity:0.7;fill:#BBDEFB;enable-background:new    ;" d="M298.75,352.042c0-29.417,23.917-53.344,53.333-53.344
	s53.333,23.927,53.333,53.344c0,14.674-5.958,27.977-15.576,37.63c-0.021,0.021-0.049,0.026-0.07,0.047
	c-0.022,0.022-0.029,0.053-0.051,0.077c-9.652,9.626-22.957,15.59-37.637,15.59C322.667,405.385,298.75,381.458,298.75,352.042z"/>
<path style="opacity:0.1;enable-background:new    ;" d="M307.074,360.355c0-29.417,23.917-53.344,53.333-53.344
	c12.57,0,23.982,4.551,33.107,11.85c-9.781-12.191-24.616-20.164-41.431-20.164c-29.417,0-53.333,23.927-53.333,53.344
	c0,16.846,7.999,31.711,20.227,41.493C311.646,384.397,307.074,372.957,307.074,360.355z"/>
<path style="opacity:0.2;fill:#FFFFFF;enable-background:new    ;" d="M346.749,368.046c0-8.826,7.175-16.004,16.001-16.004
	s16.001,7.179,16.001,16.004c0,4.403-1.788,8.393-4.673,11.29l-0.015,0.008c0,0-0.015,0.022-0.021,0.029
	c-2.896,2.888-6.888,4.677-11.292,4.677C353.924,384.05,346.749,376.871,346.749,368.046z"/>
<path style="fill:#303C42;" d="M466.292,451.177l-54.609-54.628c9.335-12.466,15.068-27.771,15.068-44.508
	c0-41.177-33.5-74.677-74.667-74.677s-74.667,33.5-74.667,74.677s33.5,74.677,74.667,74.677c16.742,0,32.051-5.74,44.518-15.083
	l54.607,54.625c2.083,2.083,4.813,3.125,7.542,3.125c2.729,0,5.458-1.042,7.542-3.125
	C470.458,462.094,470.458,455.344,466.292,451.177z M389.841,389.672c-0.021,0.021-0.049,0.026-0.07,0.047
	c-0.022,0.022-0.029,0.053-0.051,0.077c-9.652,9.626-22.957,15.59-37.637,15.59c-29.417,0-53.333-23.927-53.333-53.344
	c0-29.417,23.917-53.344,53.333-53.344s53.333,23.927,53.333,53.344C405.417,366.716,399.458,380.018,389.841,389.672z"/>
<linearGradient id="SVGID_3_" gradientUnits="userSpaceOnUse" x1="-66.4398" y1="619.1206" x2="-42.4882" y2="607.9528" gradientTransform="matrix(21.3333 0 0 -21.3333 1429.2639 13316.1533)">
	<stop  offset="0" style="stop-color:#FFFFFF;stop-opacity:0.2"/>
	<stop  offset="1" style="stop-color:#FFFFFF;stop-opacity:0"/>
</linearGradient>
<path style="fill:url(#SVGID_3_);" d="M411.682,396.549c9.335-12.466,15.068-27.771,15.068-44.508
	c0-21.664-9.422-41.033-24.206-54.686c1.845-6.48,2.872-12.447,2.872-17.022c0-14.302-2.104-33.865-18.875-45.448
	c-0.133-7.264-0.577-14.395-1.16-21.335c57.094-19.487,84.035-48.788,84.035-72.332c0-33.475-48.086-52.875-96.607-55.536
	c-4.194-31.457-31.828-85.651-59.331-85.651c-9.896,0-21.458,2.302-33.708,4.729c-14,2.781-29.854,5.938-45.063,5.938
	c-15.208,0-31.063-3.156-45.063-5.938c-12.25-2.427-23.813-4.729-33.708-4.729c-27.503,0-55.137,54.194-59.331,85.651
	C48.086,88.344,0,107.743,0,141.219c0,23.544,26.941,52.845,84.034,72.331c-0.579,6.904-1.02,14.025-1.138,21.336
	C66.104,246.458,64,266.031,64,280.333c0,18.802,16.75,60.646,40.667,68.375c0.188,0.49,0.375,0.99,0.583,1.521
	C115.583,377,143,448.115,234.708,448.115c38.516,0,65.585-12.6,84.918-29.134c9.855,4.805,20.776,7.738,32.457,7.738
	c16.742,0,32.051-5.74,44.518-15.083l54.607,54.625c2.083,2.083,4.813,3.125,7.542,3.125c2.729,0,5.458-1.042,7.542-3.125
	c4.167-4.167,4.167-10.917,0-15.083L411.682,396.549z"/>
<g>
</g>
<g>
</g>
<g>
</g>
<g>
</g>
<g>
</g>
<g>
</g>
<g>
</g>
<g>
</g>
<g>
</g>
<g>
</g>
<g>
</g>
<g>
</g>
<g>
</g>
<g>
</g>
<g>
</g>
</svg>
